<svg xmlns="http://www.w3.org/2000/svg" width="65.722" height="115.106" viewBox="0 0 65.722 115.106">
  <g id="Group_2" data-name="Group 2" transform="translate(-130.76 -100.995)">
    <path id="Path_61" data-name="Path 61" d="M814.637,403.526a2.672,2.672,0,0,1-1.937-4.632l.183-.728-.073-.175a7.176,7.176,0,0,0-13.237.049c-2.165,5.214-4.922,10.438-5.6,15.951a21.227,21.227,0,0,0,.373,7.3,85.115,85.115,0,0,1-7.743-35.351,82.165,82.165,0,0,1,.51-9.165q.422-3.742,1.171-7.431a86.1,86.1,0,0,1,17.075-36.492,22.914,22.914,0,0,0,9.53-9.887,17.477,17.477,0,0,0,1.59-4.776c-.464.061-.936.1-1.4.129l-.441.023-.055,0a2.648,2.648,0,0,1-2.174-4.313l.6-.739c.3-.38.616-.753.92-1.133a1.327,1.327,0,0,0,.1-.114c.35-.434.7-.859,1.05-1.293a7.657,7.657,0,0,0-2.51-2.426c-3.506-2.054-8.343-.631-10.876,2.54s-3.019,7.621-2.137,11.583a30.684,30.684,0,0,0,4.244,9.461c-.19.243-.388.479-.578.723a86.656,86.656,0,0,0-9.045,14.329,36.025,36.025,0,0,0-2.151-16.733c-2.059-4.966-5.917-9.149-9.315-13.442-4.081-5.157-12.451-2.906-13.17,3.631q-.01.095-.02.19.757.427,1.482.907a3.625,3.625,0,0,1-1.461,6.6l-.074.011a36.071,36.071,0,0,0,.951,5.392,37.134,37.134,0,0,0,18.489,23.273c.3.152.586.3.882.449a88.454,88.454,0,0,0-4.761,22.406,83.9,83.9,0,0,0,.061,13.546l-.023-.16a22.168,22.168,0,0,0-7.568-12.8c-5.824-4.784-14.052-6.546-20.334-10.391a4.16,4.16,0,0,0-6.372,4.047q.013.084.026.168a24.34,24.34,0,0,1,2.73,1.316q.757.427,1.482.907a3.625,3.625,0,0,1-1.461,6.6l-.074.011-.152.023a36.1,36.1,0,0,0,6.64,10.4,37.167,37.167,0,0,0,26.955,11.827h.008a88.423,88.423,0,0,0,5.94,17.341h21.22c.076-.236.145-.479.213-.715a24.11,24.11,0,0,1-5.872-.35c1.574-1.932,3.149-3.879,4.723-5.811a1.312,1.312,0,0,0,.1-.114c.8-.989,1.6-1.97,2.4-2.959h0a35.315,35.315,0,0,0-1.035-9Zm-24.3-47.8.011-.015-.011.03Zm-4.7,42.371-.183-.411c.008-.3.008-.593,0-.9,0-.084-.015-.167-.015-.251.068.525.129,1.05.205,1.574Z" transform="translate(-619.997 -206.371)" fill="#4B4B4B"/>
  </g>
</svg>
