<svg xmlns="http://www.w3.org/2000/svg" viewBox="0 0 64 64"><path fill="none" d="M24.5 11.751h7v7h-7zM36.959 11.751h7v7h-7zM12.041 11.751h7v7h-7zM55.66 36.82 44.69 47.79l-3.04.21.21-3.04 10.97-10.97z"/><path fill="#23CE6B" d="M49 57H7V7h42v25.58h2V5H5v54h46V46.72h-2z"/><path fill="#23CE6B" d="M23.5 10.751v9h9v-9h-9zm7 7h-5v-5h5v5zm14.459-7h-9v9h9v-9zm-2 7h-5v-5h5v5zm-22.918-7h-9v9h9v-9zm-2 7h-5v-5h5v5zM11.67 47h25.97v2H11.67zM11.666 51.249h32.667v2H11.666zM11.666 42.749H37.64v2H11.666zM11.67 38.5h30v2h-30zM11.666 34.249h32.667v2H11.666zM11.666 29.999h32.667v2H11.666zM11.666 25.749h32.667v2H11.666zM58.122 31.53c-1.134-1.134-3.11-1.134-4.243 0L40.886 44.521l-.31 4.552 4.552-.308 12.993-12.993A2.98 2.98 0 0 0 59 33.65c0-.8-.312-1.554-.878-2.12zM44.245 46.82l-1.518.104.103-1.517 10.003-10.004 1.414 1.414L44.245 46.82zm12.462-12.463-1.046 1.046-1.414-1.414 1.046-1.046a1.021 1.021 0 0 1 1.414 0c.189.19.293.44.293.707a.993.993 0 0 1-.293.707z"/></svg>