<svg xmlns="http://www.w3.org/2000/svg" enable-background="new 0 0 64 64" viewBox="0 0 64 64"><rect width="7" height="7" x="24.5" y="11.751" fill="none"/><rect width="7" height="7" x="36.959" y="11.751" fill="none"/><rect width="7" height="7" x="12.041" y="11.751" fill="none"/><polygon fill="none" points="55.66 36.82 44.69 47.79 41.65 48 41.86 44.96 52.83 33.99"/><polygon fill="#23CE6B" points="49 57 7 57 7 7 49 7 49 32.58 51 32.58 51 5 5 5 5 59 51 59 51 46.72 49 46.72"/><path fill="#23CE6B" d="M23.5 10.751v9h9v-9H23.5zM30.5 17.751h-5v-5h5V17.751zM44.959 10.751h-9v9h9V10.751zM42.959 17.751h-5v-5h5V17.751zM20.041 10.751h-9v9h9V10.751zM18.041 17.751h-5v-5h5V17.751z"/><rect width="25.97" height="2" x="11.67" y="47" fill="#23CE6B"/><rect width="32.667" height="2" x="11.666" y="51.249" fill="#23CE6B"/><rect width="25.974" height="2" x="11.666" y="42.749" fill="#23CE6B"/><rect width="30" height="2" x="11.67" y="38.5" fill="#23CE6B"/><rect width="32.667" height="2" x="11.666" y="34.249" fill="#23CE6B"/><rect width="32.667" height="2" x="11.666" y="29.999" fill="#23CE6B"/><rect width="32.667" height="2" x="11.666" y="25.749" fill="#23CE6B"/><path fill="#23CE6B" d="M58.1216,31.5293c-1.1338-1.1328-3.1099-1.1328-4.2427,0L40.8857,44.5225l-0.3101,4.5518l4.5527-0.3086
			l12.9922-12.9932C58.6875,35.2061,59,34.4521,59,33.6504C59,32.8496,58.688,32.0957,58.1216,31.5293z M44.2446,46.8203
			l-1.5176,0.1035l0.103-1.5166l10.0031-10.0038l1.4141,1.4139L44.2446,46.8203z M56.707,34.3574l-1.0457,1.0457l-1.4141-1.4139
			l1.0458-1.0459h0.0005c0.377-0.3789,1.0356-0.3789,1.4136,0C56.896,33.1328,57,33.3838,57,33.6504
			C57,33.918,56.896,34.168,56.707,34.3574z"/></svg>