<svg xmlns="http://www.w3.org/2000/svg" viewBox="0 0 100 100" style="enable-background:new 0 0 100 100" xml:space="preserve"><path d="M93 19H7c-1.1 0-2 .9-2 2V79.5c0 .1 0 .1.1.2 0 .1 0 .1.1.2 0 .1.1.1.1.2s.1.1.1.2v.1l.1.1.1.1.1.1s.1.1.2.1.1.1.2.1.1.1.2.1.1 0 .2.1h87c.1 0 .2-.1.3-.1l.1-.1c.1 0 .2-.1.2-.2l.1-.1.2-.2.1-.1v-.1c0-.1.1-.1.1-.2 0 0 .1-.1.1-.2s0-.1.1-.2 0-.1.1-.2V21c.1-1.1-.8-2-1.9-2zM9 32.1l27 21.4L9 74.9V32.1zM12.8 77l26.5-21 9.5 7.5c.4.3.8.4 1.2.4s.9-.1 1.2-.4l9.5-7.5 26.5 21H12.8zM91 74.9 64 53.5l27-21.4v42.8zM91 27l-1.2 1L50 59.5 10.2 28 9 27v-4h82v4z"/></svg>