<svg xmlns="http://www.w3.org/2000/svg" width="751.131" height="569.602" viewBox="0 0 751.131 569.602">
  <g id="Group_1" data-name="Group 1" transform="translate(-548 -279)">
    <path id="Path_1" data-name="Path 1" d="M690.56,204.26V601.49l-1.38,16.54a126.311,126.311,0,0,1-34.47,76.58q-4.23,4.425-8.85,8.38a123.2,123.2,0,0,1-11.94,9.09c-2.38,1.6-4.82,3.11-7.3,4.54a126,126,0,0,1-46.87,15.85H461.39a38.928,38.928,0,0,1-25.62-9.59,39.51,39.51,0,0,1-8.7-10.8,38.9,38.9,0,0,1-4.76-18.69V204.26a39.14,39.14,0,0,1,39.09-39.09H651.48c.45,0,.89.01,1.34.02.29.01.58.02.87.05.39.01.78.04,1.16.08.49.03.97.08,1.45.14.44.06.88.12,1.32.19.09.01.17.03.26.04.56.09,1.12.19,1.67.31s1.11.24,1.65.38c.39.1.79.21,1.18.32.01,0,.03.01.04.01,1.15.34,2.29.73,3.41,1.18.35.13.7.28,1.04.43l.15.06c.28.12.55.24.82.37.81.37,1.61.78,2.4,1.21a40.161,40.161,0,0,1,3.77,2.36c.39.27.77.56,1.14.85.31.23.62.47.92.73a.305.305,0,0,1,.07.05c.04.03.08.07.12.1.27.21.53.43.78.65.49.42.97.86,1.44,1.31.13.12.26.24.39.37s.25.25.38.38.25.25.37.37a1.89,1.89,0,0,1,.2.2c.36.38.71.77,1.05,1.16.43.49.85.99,1.24,1.5.34.42.66.84.97,1.27.29.39.56.78.83,1.18a3.274,3.274,0,0,1,.2.31c.28.41.54.83.8,1.25.65,1.06,1.24,2.16,1.78,3.27.2.42.39.83.57,1.25.23.51.44,1.02.64,1.53.08.19.15.39.22.58.11.29.21.58.31.87.11.32.22.65.32.97l.24.78c.14.47.26.93.38,1.4.07.28.14.56.2.85a39.071,39.071,0,0,1,.91,6.21c.01.26.03.51.04.77C690.55,203.07,690.56,203.66,690.56,204.26Z" transform="translate(323.566 113.83)" fill="#3f3d56"/>
    <path id="Path_2" data-name="Path 2" d="M690.56,204.26V369.08l-24.82,26.96q-1.68-1.77-3.31-3.59-2.325-2.55-4.54-5.18c-.39-.45-.76-.89-1.14-1.34-.99-1.16-1.95-2.34-2.91-3.53a240.771,240.771,0,0,1-23.15-34.3c-.84-1.51-1.66-3.02-2.47-4.55a240.351,240.351,0,0,1-17.71-43.28c-.51-1.69-1-3.4-1.46-5.11a240.721,240.721,0,0,1-7.59-40.89c-.19-1.95-.36-3.89-.5-5.84,0-.05-.01-.11-.01-.16-.16-2.12-.27-4.24-.37-6.38a242.311,242.311,0,0,1,8.72-76.72h42.18c.45,0,.89.01,1.34.02.29.01.58.02.87.05.39.01.78.04,1.16.08.49.03.97.08,1.45.14.44.06.88.12,1.32.19.09.01.17.03.26.04h.01c.56.09,1.12.19,1.67.31s1.11.24,1.65.38c.39.1.79.21,1.18.32.01,0,.03.01.04.01,1.15.34,2.28.73,3.4,1.18.35.13.7.28,1.04.43l.15.06c.28.12.55.24.82.37.81.37,1.61.78,2.4,1.21a40.161,40.161,0,0,1,3.77,2.36c.39.27.77.56,1.14.85.31.23.62.47.92.73a.305.305,0,0,1,.07.05h.01c.18.15.36.3.53.45.12.1.25.2.36.3.17.14.33.29.5.43.08.07.16.14.23.21.24.22.47.44.71.67.13.12.26.24.39.37s.25.25.38.38.25.25.37.37l.01.01a.855.855,0,0,1,.19.19c.36.38.71.77,1.05,1.16.43.49.85.99,1.24,1.5.34.42.66.84.97,1.27.29.39.56.78.83,1.18a3.274,3.274,0,0,1,.2.31c.28.41.54.83.8,1.25.65,1.06,1.24,2.16,1.78,3.27.2.42.39.83.57,1.25.23.51.44,1.02.64,1.53.08.19.15.39.22.58.11.29.21.58.31.87.11.32.22.65.32.97l.24.78c.14.47.26.93.38,1.4.07.28.14.56.2.85a39.071,39.071,0,0,1,.91,6.21c.01.26.03.51.04.77C690.55,203.07,690.56,203.66,690.56,204.26Z" transform="translate(323.566 113.83)" fill="#23ce6b"/>
    <path id="Path_3" data-name="Path 3" d="M690.57,254.27v-4.56H662.43V178.49h18.45c-.34-.39-.69-.78-1.05-1.16h-.01a.856.856,0,0,0-.19-.19v-.01h-.01c-.12-.12-.24-.25-.37-.37a4.443,4.443,0,0,0-.37-.38h-.01c-.13-.13-.26-.25-.39-.37-.24-.23-.47-.45-.71-.67-.07-.07-.15-.14-.23-.21-.17-.14-.33-.29-.5-.43-.11-.1-.24-.2-.36-.3-.17-.15-.35-.3-.53-.45H662.43v-7.24c-.01,0-.03-.01-.04-.01-.39-.11-.79-.22-1.18-.32-.54-.14-1.1-.27-1.65-.38s-1.11-.22-1.67-.31v12.8a71.234,71.234,0,0,1-56.933,69.779,1.256,1.256,0,0,0,0,.161c.14,1.95.31,3.89.5,5.84h56.43v89.28H628.22c.81,1.53,1.63,3.04,2.47,4.55h27.2v39.17q2.22,2.625,4.54,5.18V348.1h28.14v-9.18h-.01c-.09.03-.17.06-.26.09-13.71,4.61-27.87-5.79-27.87-20.26V254.27Z" transform="translate(323.566 113.83)" opacity="0.2"/>
    <path id="Path_4" data-name="Path 4" d="M352.382,616.513,302.64,599.134a170.006,170.006,0,0,1,3.577-81.72c18.87,45.43,77.726,58.131,110.4,94.9a102.259,102.259,0,0,1,23.7,85.409l9.524,36.136a171.354,171.354,0,0,1-122.6-74.521,165.518,165.518,0,0,1-18.323-37.262C330.386,620.556,352.382,616.513,352.382,616.513Z" transform="translate(323.566 113.83)" fill="#f2f2f2"/>
    <path id="Path_5" data-name="Path 5" d="M419.6,343.138a4.4,4.4,0,0,1-4.4-4.4V308.827a4.4,4.4,0,0,1,8.8,0v29.912a4.4,4.4,0,0,1-4.4,4.4Z" transform="translate(323.566 113.83)" fill="#3f3d56"/>
    <rect id="Rectangle_1" data-name="Rectangle 1" width="61.948" height="27.168" rx="13.584" transform="translate(849.033 433.085)" fill="#23ce6b"/>
    <rect id="Rectangle_2" data-name="Rectangle 2" width="190.998" height="27.168" rx="13.584" transform="translate(784.508 487.421)" fill="#fff"/>
    <rect id="Rectangle_3" data-name="Rectangle 3" width="190.998" height="27.168" rx="13.584" transform="translate(784.508 541.758)" fill="#fff"/>
    <path id="Path_6" data-name="Path 6" d="M418.718,285.073a4.4,4.4,0,0,1-4.4-4.4V250.762a4.4,4.4,0,0,1,8.8,0v29.912A4.4,4.4,0,0,1,418.718,285.073Z" transform="translate(323.566 113.83)" fill="#3f3d56"/>
    <path id="Path_7" data-name="Path 7" d="M526.728,179.7a4.4,4.4,0,0,1,4.4-4.4h29.912a4.4,4.4,0,1,1,0,8.8H531.127a4.4,4.4,0,0,1-4.4-4.4Z" transform="translate(323.566 113.83)" fill="#fff"/>
    <path id="Path_8" data-name="Path 8" d="M419.6,394.165a4.4,4.4,0,0,1-4.4-4.4V359.854a4.4,4.4,0,0,1,8.8,0v29.912a4.4,4.4,0,0,1-4.4,4.4Z" transform="translate(323.566 113.83)" fill="#3f3d56"/>
    <path id="Path_9" data-name="Path 9" d="M693.6,329.165a4.4,4.4,0,0,1-4.4-4.4V294.854a4.4,4.4,0,1,1,8.8,0v29.912a4.4,4.4,0,0,1-4.4,4.4Z" transform="translate(323.566 113.83)" fill="#3f3d56"/>
    <circle id="Ellipse_1" data-name="Ellipse 1" cx="4.399" cy="4.399" r="4.399" transform="translate(896.922 289.134)" fill="#fff"/>
    <path id="Path_10" data-name="Path 10" d="M818.327,601.036V536.627a4.923,4.923,0,0,1,4.917-4.917h48.643a4.923,4.923,0,0,1,4.917,4.917v64.409a4.923,4.923,0,0,1-4.917,4.917H823.244A4.923,4.923,0,0,1,818.327,601.036Z" transform="translate(323.566 113.83)" fill="#e6e6e6"/>
    <path id="Path_11" data-name="Path 11" d="M822.058,581.582V540.174a4.61,4.61,0,0,1,4.6-4.6h41.805a4.61,4.61,0,0,1,4.605,4.6V597.49a4.61,4.61,0,0,1-4.605,4.605h-25.9A20.536,20.536,0,0,1,822.058,581.582Z" transform="translate(323.566 113.83)" fill="#fff"/>
    <path id="Path_12" data-name="Path 12" d="M828.827,551.727a4.5,4.5,0,0,1,4.5-4.5h29a4.5,4.5,0,0,1,0,9h-29A4.5,4.5,0,0,1,828.827,551.727Z" transform="translate(323.566 113.83)" fill="#e6e6e6"/>
    <path id="Path_13" data-name="Path 13" d="M828.827,565.727a4.5,4.5,0,0,1,4.5-4.5h29a4.5,4.5,0,0,1,0,9h-29A4.5,4.5,0,0,1,828.827,565.727Z" transform="translate(323.566 113.83)" fill="#e6e6e6"/>
    <path id="Path_14" data-name="Path 14" d="M828.827,579.727a4.5,4.5,0,0,1,4.5-4.5h29a4.5,4.5,0,0,1,0,9h-29a4.5,4.5,0,0,1-4.5-4.5Z" transform="translate(323.566 113.83)" fill="#e6e6e6"/>
    <path id="Path_15" data-name="Path 15" d="M596.14,549.413h-9.386l-4.466-36.205h13.853Z" transform="translate(548 279)" fill="#ffb6b6"/>
    <path id="Path_16" data-name="Path 16" d="M824.773,732.405h-6.66l-1.189-6.288-3.045,6.288H796.214a3.971,3.971,0,0,1-2.256-7.238l14.107-9.743v-6.357l14.838.886Z" transform="translate(323.566 113.83)" fill="#2f2e41"/>
    <path id="Path_17" data-name="Path 17" d="M565.113,528.194l-8.143,4.668-21.881-29.187,12.019-6.89Z" transform="translate(548 279)" fill="#ffb6b6"/>
    <path id="Path_18" data-name="Path 18" d="M802.054,706.737l-5.778,3.313-4.159-4.864.486,6.97-15.325,8.786a3.971,3.971,0,0,1-5.558-5.157l7.392-15.468-3.162-5.515,13.313-6.612Z" transform="translate(323.566 113.83)" fill="#2f2e41"/>
    <path id="Path_19" data-name="Path 19" d="M527.912,294.594l-5.439,34.673,51.67.68-6.8-33.313Z" transform="translate(548 279)" fill="#23ce6b"/>
    <path id="Path_20" data-name="Path 20" d="M748.407,485.971,731.951,529.79l-.931,82.848-.049,4.342-.645,15.035,29,52,19.521-13-23.521-44v-.125c0-8.094,3.852-33.7,10.375-38.5h0l11.459-22.909,9.165,54.532,21.428,76.559,15.572.441-6.572-72.3-.606-9.464L813.8,608.8l-.375-5.858,1.481-7.117-3.072-48.016s2.807-32.067-11.558-50.989l-3.5-10.1Z" transform="translate(323.566 113.83)" fill="#2f2e41"/>
    <path id="Path_21" data-name="Path 21" d="M812.819,540.063a6.76,6.76,0,0,1,1.348-10.278l-5.54-23.375,11.725,4.284,3.463,21.54a6.8,6.8,0,0,1-11,7.828Z" transform="translate(323.566 113.83)" fill="#ffb8b8"/>
    <path id="Path_22" data-name="Path 22" d="M784.622,442.11l4.706,12.1s-2.017,12.1,1.344,14.789,2.017,2.689,2.017,4.706a10.341,10.341,0,0,0,4.033,7.395c2.689,2.017,14.789,43.023,14.789,43.023h12.1a37.912,37.912,0,0,1,0-9.411c.672-4.706-2.017-16.806-3.361-18.823s0-4.706,0-8.739-2.689-6.05-2.689-12.773-8.067-59.157-7.395-65.207-6.722-11.428-6.722-11.428h-6.722Z" transform="translate(323.566 113.83)" fill="#23ce6b"/>
    <path id="Path_23" data-name="Path 23" d="M686,407.823a6.76,6.76,0,0,0,8.719,5.606l14.274,19.322,4.3-11.72-14.213-16.552A6.8,6.8,0,0,0,686,407.823Z" transform="translate(323.566 113.83)" fill="#ffb8b8"/>
    <path id="Path_24" data-name="Path 24" d="M744,475.495a.536.536,0,0,1,.016-.548c.993-1.774,5.663-46.851,8.561-76.716l.037-.377.374.011c.077,0,7.631.148,14.292-7.376.871-.984.976-3.25,1.088-5.65.136-2.923.276-5.946,1.816-7.507l.067-.067.09-.031c6.483-2.188,17.43-.773,20.684-.01l.141.033.088.117c1.346,1.8,1.271,4.678,1.2,7.461-.065,2.5-.126,4.87.97,5.583q1.271.829,2.443,1.584c9.635,6.228,14.472,9.355,18.015,19.529,1.3,3.725,1.711,6.85,1.23,9.288-2.079,10.537,1.4,63.271,1.912,65.358a9.743,9.743,0,0,0,1.492,2.724c.861,1.257,1.6,2.342,1.176,3.173-.292.566-1.046.83-2.374.83C812.311,492.9,745.455,478.253,744,475.495ZM744.686,475.39Z" transform="translate(322.453 113.83)" fill="#23ce6b"/>
    <path id="Path_25" data-name="Path 25" d="M714.147,442.768l-.11-.07-1.234-3.179-5.819-1.482L696.51,417.09l8.329-7.5,11.211,6.539,4.082,5.458,5.059,1.994,11.862,8.749,10.7-29.425a11.641,11.641,0,0,1,16.237-6.389l11.567,5.91.1.073c.185.184,4.507,4.622,3.772,12.736-.689,7.6-6.2,19.921-28.576,35.43l-12.831,7.218Z" transform="translate(323.566 113.83)" fill="#23ce6b"/>
    <path id="Path_26" data-name="Path 26" d="M760.987,363.744a21.845,21.845,0,1,0-1.11-18.61c-.1.25-.19.5-.28.76A21.815,21.815,0,0,0,760.987,363.744Z" transform="translate(323.566 113.83)" fill="#ffb6b6"/>
    <path id="Path_27" data-name="Path 27" d="M757.847,345.894c.94-2.63.53-1.26,1.48-3.88a6.538,6.538,0,0,0,.27,3.88h26.01v-15.12c-7.62-3.02-15.07-5.59-19.57,0a15.121,15.121,0,0,0-15.12,15.119Z" transform="translate(323.566 113.83)" fill="#2f2e41"/>
    <path id="Path_28" data-name="Path 28" d="M767.067,387.924c.02-.28.05-.57.09-.85a29.451,29.451,0,0,1,1.69-6c.75-2.11,1.51-4.23,2.27-6.34a18.151,18.151,0,0,0,.85,11.52c4.39-3.42,1.62-11.24,7.36-11.24,13.8,0,28-11.19,28-25s-5.92-24.12-19.72-24.12-25.01,6.32-25.28,20.12C779.327,350.014,763.857,386.524,767.067,387.924Z" transform="translate(323.566 113.83)" fill="#2f2e41"/>
    <circle id="Ellipse_2" data-name="Ellipse 2" cx="16" cy="16" r="16" transform="translate(1113.168 429.729)" fill="#2f2e41"/>
    <path id="Path_29" data-name="Path 29" d="M799.847,319.394l1.92-2.46c4.5,7.19,13.66,9.91,19.61,15.96,9.76,9.93,8.69,26.07,5.18,39.54s-8.84,27.42-5.36,40.91c2.32,9,8.35,16.58,14.79,23.29,6.07,6.34,13.27,12.4,21.31,15.47a47.025,47.025,0,0,1,2.15-7.09c1.07-3,2.14-6.01,3.22-9a25.779,25.779,0,0,0,1.21,16.35c.22.54.47,1.08.73,1.61a27.658,27.658,0,0,0,4.65.21,26.105,26.105,0,0,0,11.27-3.16,55.941,55.941,0,0,1,1.92-6.01c1.07-3,2.14-6.01,3.22-9a25.415,25.415,0,0,0-.24,11.7,29.788,29.788,0,0,0,10.21-16.59c2.58-12.31-3.08-25.7-13.15-33.23-7.36-5.5-16.47-7.99-24.77-11.95s-16.44-10.31-18.23-19.32c-2.67-13.48,9.7-25.37,11.41-39,1.64-13.14-8.48-26.65-21.55-28.76S802.417,306.4,799.847,319.394Z" transform="translate(323.566 113.83)" fill="#2f2e41"/>
    <path id="Path_30" data-name="Path 30" d="M645.867,702.987a123.187,123.187,0,0,1-11.94,9.09c-2.38,1.6-4.82,3.11-7.3,4.54a125.993,125.993,0,0,1-46.87,15.85H461.4a38.927,38.927,0,0,1-25.62-9.59,39.508,39.508,0,0,1-8.7-10.8,38.9,38.9,0,0,1-4.76-18.69V477.747q6.78.48,13.46,1.35c1.52.19,3.03.4,4.54.63a240.058,240.058,0,0,1,87.5,31.07c1.52.9,3.04,1.82,4.54,2.77a241.866,241.866,0,0,1,37.6,28.9q2.385,2.235,4.71,4.55a241.855,241.855,0,0,1,57.25,89.28q.825,2.265,1.6,4.56a240.538,240.538,0,0,1,12.35,62.13Z" transform="translate(323.566 113.83)" fill="#23ce6b"/>
    <path id="Path_31" data-name="Path 31" d="M532.357,712.077a71.22,71.22,0,0,1,71.23-71.22h29.93q-.78-2.295-1.6-4.56h-99.56v-89.28h42.31q-2.325-2.31-4.71-4.55h-37.6v-28.9c-1.5-.95-3.02-1.87-4.54-2.77v31.67h-87.5v-62.74c-1.51-.23-3.02-.44-4.54-.63v63.37h-13.46v4.55h13.46V636.3h-13.46v4.56h13.46v71.22h-8.7a39.8,39.8,0,0,0,2.91,4.54h5.79v6.26a38.985,38.985,0,0,0,4.54,3.41v-9.67h87.5v15.85h4.54v-15.85h94.27c2.48-1.43,4.92-2.94,7.3-4.54Zm-4.54,0h-87.5v-71.22h87.5Zm0-75.78h-87.5v-1.77a87.509,87.509,0,0,1,87.5-87.51Z" transform="translate(323.566 113.83)" opacity="0.2"/>
    <path id="Path_32" data-name="Path 32" d="M512.327,591.727a17,17,0,1,1-8-14.42,54.159,54.159,0,0,0-8.19,12.89,26.272,26.272,0,0,1,13.75-7.25A16.883,16.883,0,0,1,512.327,591.727Z" transform="translate(323.566 113.83)" fill="#2f2e41"/>
    <path id="Path_33" data-name="Path 33" d="M570.306,688.748a17,17,0,1,1,15.853,4.54,54.157,54.157,0,0,0-3.323-14.906,26.275,26.275,0,0,1-4.6,14.853A16.881,16.881,0,0,1,570.306,688.748Z" transform="translate(323.566 113.83)" fill="#2f2e41"/>
    <path id="Path_34" data-name="Path 34" d="M671.1,218.372H441.78a1.016,1.016,0,0,1,0-2.031H671.1a1.016,1.016,0,0,1,0,2.031Z" transform="translate(323.566 113.83)" fill="#fff"/>
    <ellipse id="Ellipse_3" data-name="Ellipse 3" cx="5.95" cy="6.083" rx="5.95" ry="6.083" transform="translate(776.776 312.822)" fill="#fff"/>
    <ellipse id="Ellipse_4" data-name="Ellipse 4" cx="5.95" cy="6.083" rx="5.95" ry="6.083" transform="translate(797.332 312.822)" fill="#fff"/>
    <ellipse id="Ellipse_5" data-name="Ellipse 5" cx="5.95" cy="6.083" rx="5.95" ry="6.083" transform="translate(817.888 312.822)" fill="#fff"/>
    <path id="Path_35" data-name="Path 35" d="M658.727,200.5h-14.6a1.106,1.106,0,1,0,0,2.211h14.6a1.106,1.106,0,1,0,0-2.211Z" transform="translate(323.566 113.83)" fill="#fff"/>
    <path id="Path_36" data-name="Path 36" d="M658.727,204.649h-14.6a1.106,1.106,0,1,0,0,2.211h14.6a1.106,1.106,0,1,0,0-2.211Z" transform="translate(323.566 113.83)" fill="#fff"/>
    <path id="Path_37" data-name="Path 37" d="M658.727,208.794h-14.6a1.106,1.106,0,1,0,0,2.211h14.6a1.106,1.106,0,1,0,0-2.211Z" transform="translate(323.566 113.83)" fill="#fff"/>
    <path id="Path_38" data-name="Path 38" d="M974.375,734.465l-748.75.307a1.191,1.191,0,0,1,0-2.381l748.75-.307a1.191,1.191,0,0,1,0,2.381Z" transform="translate(323.566 113.83)" fill="#cacaca"/>
  </g>
</svg>
