<svg xmlns="http://www.w3.org/2000/svg" viewBox="0 0 24 24"><path fill="#2580F8" d="M.775 12.675C6.933 18.877 3.641 15.558 12.022 24c9.813-9.882 8.907-8.984 8.002-8.088-.718.711-1.434 1.423 3.198-3.242a.947.947 0 0 0 0-1.341v.001C19.841 7.922 15.364 3.366 12.022 0 4.346 7.73.775 11.33.775 11.33a.96.96 0 0 0 0 1.345zM12.02 8.452 15.546 12l-3.525 3.548L8.495 12l3.525-3.548z"/><path fill="#DEDEDE" d="M12 8.473 8.495 12 12 15.527V8.473z"/><path fill="#206FD8" d="M12 .022A33493.14 33493.14 0 0 0 .775 11.33a.961.961 0 0 0 0 1.345C6.928 18.872 3.646 15.564 12 23.978v-8.451L8.495 12 12 8.473V.022z"/></svg>