<svg xmlns="http://www.w3.org/2000/svg" width="860.131" height="551.742" viewBox="0 0 860.131 551.742">
  <g id="Group_3" data-name="Group 3" transform="translate(-1112 -43)">
    <g id="Group_2" data-name="Group 2" transform="translate(1111.995 43)">
      <path id="Path_39" data-name="Path 39" d="M973.935,661.629H756.586A29.859,29.859,0,0,1,726.761,631.8V288.961a29.859,29.859,0,0,1,29.826-29.826H973.935a29.859,29.859,0,0,1,29.826,29.826V631.8a29.859,29.859,0,0,1-29.826,29.825Z" transform="translate(-169.934 -174.129)" fill="#e6e6e6"/>
      <path id="Path_40" data-name="Path 40" d="M977.539,276.933H756.176a9.348,9.348,0,0,0-9.337,9.337V633.583a9.351,9.351,0,0,0,9.337,9.337H977.539a9.348,9.348,0,0,0,9.337-9.337V286.269a9.348,9.348,0,0,0-9.337-9.336Z" transform="translate(-169.934 -174.129)" fill="#fff"/>
      <path id="Path_41" data-name="Path 41" d="M761.9,259.135a2.284,2.284,0,0,1,2.282-2.282H779.7a2.282,2.282,0,0,1,0,4.563H764.181A2.284,2.284,0,0,1,761.9,259.135Z" transform="translate(-169.934 -174.129)" fill="#e6e6e6"/>
      <path id="Path_42" data-name="Path 42" d="M787.454,259.135a2.284,2.284,0,0,1,2.282-2.282h15.516a2.282,2.282,0,0,1,0,4.563H789.736a2.284,2.284,0,0,1-2.282-2.282Z" transform="translate(-169.934 -174.129)" fill="#e6e6e6"/>
      <path id="Path_43" data-name="Path 43" d="M940.785,259.135a2.284,2.284,0,0,1,2.282-2.282h15.516a2.282,2.282,0,1,1,0,4.563H943.067A2.284,2.284,0,0,1,940.785,259.135Z" transform="translate(-169.934 -174.129)" fill="#e6e6e6"/>
      <path id="Path_44" data-name="Path 44" d="M897.533,635.764c0,2.4-.046,4.792-.155,7.155h-141.2a9.351,9.351,0,0,1-9.337-9.337V458.767a179.289,179.289,0,0,1,150.694,177Z" transform="translate(-169.934 -174.129)" fill="#f2f2f2"/>
      <rect id="Rectangle_4" data-name="Rectangle 4" width="61.339" height="14.092" rx="4.339" transform="translate(665.804 192.056)" fill="#23ce6b"/>
      <rect id="Rectangle_5" data-name="Rectangle 5" width="128.277" height="14.092" rx="4.339" transform="translate(632.335 220.241)" fill="#e6e6e6"/>
      <rect id="Rectangle_6" data-name="Rectangle 6" width="128.277" height="14.092" rx="4.339" transform="translate(632.335 248.426)" fill="#e6e6e6"/>
      <path id="Path_45" data-name="Path 45" d="M905.728,619.183a3.348,3.348,0,0,1-2.426-5.8l.229-.912-.091-.219a8.991,8.991,0,0,0-16.584.062c-2.712,6.533-6.166,13.077-7.016,19.984a26.6,26.6,0,0,0,.467,9.147,106.635,106.635,0,0,1-9.7-44.289,102.935,102.935,0,0,1,.638-11.482q.529-4.688,1.467-9.309A107.87,107.87,0,0,1,894.1,530.644a28.708,28.708,0,0,0,11.939-12.387,21.9,21.9,0,0,0,1.992-5.984c-.581.076-1.172.124-1.753.162l-.553.029-.068,0a3.317,3.317,0,0,1-2.724-5.4l.753-.926c.381-.476.772-.943,1.153-1.42a1.662,1.662,0,0,0,.124-.143c.438-.543.877-1.077,1.315-1.62a9.592,9.592,0,0,0-3.144-3.039c-4.393-2.573-10.453-.791-13.626,3.182s-3.783,9.548-2.678,14.512a38.438,38.438,0,0,0,5.317,11.854c-.238.3-.486.6-.724.905a108.569,108.569,0,0,0-11.332,17.952,45.131,45.131,0,0,0-2.694-20.963c-2.579-6.222-7.413-11.462-11.67-16.84-5.113-6.461-15.6-3.641-16.5,4.549q-.013.119-.026.238.948.535,1.857,1.136a4.541,4.541,0,0,1-1.831,8.264l-.093.014a45.2,45.2,0,0,0,1.191,6.756,46.523,46.523,0,0,0,23.164,29.157c.372.191.734.381,1.105.562a110.817,110.817,0,0,0-5.965,28.071,105.1,105.1,0,0,0,.076,16.97l-.029-.2A27.773,27.773,0,0,0,859.2,590c-7.3-5.994-17.6-8.2-25.475-13.018a5.212,5.212,0,0,0-7.983,5.071q.016.105.032.21a30.5,30.5,0,0,1,3.421,1.648q.948.535,1.857,1.136a4.541,4.541,0,0,1-1.831,8.264l-.093.014-.19.029a45.224,45.224,0,0,0,8.318,13.026,46.564,46.564,0,0,0,33.769,14.817h.01a110.788,110.788,0,0,0,7.442,21.725h26.585c.1-.3.181-.6.267-.9a30.2,30.2,0,0,1-7.356-.438c1.972-2.42,3.945-4.86,5.917-7.28a1.661,1.661,0,0,0,.124-.143c1-1.239,2.011-2.468,3.011-3.707v0a44.241,44.241,0,0,0-1.3-11.271ZM875.285,559.3l.014-.019-.014.038ZM869.4,612.38l-.229-.514c.01-.372.01-.743,0-1.124,0-.1-.019-.21-.019-.315.086.657.162,1.315.257,1.972Z" transform="translate(-169.934 -174.129)" fill="#ccc"/>
      <path id="Path_46" data-name="Path 46" d="M966.474,307.6H767.241a1.649,1.649,0,1,1,0-3.3H966.474a1.649,1.649,0,1,1,0,3.3Z" transform="translate(-169.934 -174.129)" fill="#cacaca"/>
      <ellipse id="Ellipse_6" data-name="Ellipse 6" cx="4.846" cy="4.954" rx="4.846" ry="4.954" transform="translate(603.091 115.492)" fill="#3f3d56"/>
      <ellipse id="Ellipse_7" data-name="Ellipse 7" cx="4.846" cy="4.954" rx="4.846" ry="4.954" transform="translate(619.832 115.492)" fill="#3f3d56"/>
      <ellipse id="Ellipse_8" data-name="Ellipse 8" cx="4.846" cy="4.954" rx="4.846" ry="4.954" transform="translate(636.574 115.492)" fill="#3f3d56"/>
      <path id="Path_47" data-name="Path 47" d="M958.687,291.535H947.842a.821.821,0,1,0,0,1.643h10.845a.821.821,0,1,0,0-1.642Z" transform="translate(-169.934 -174.129)" fill="#3f3d56"/>
      <path id="Path_48" data-name="Path 48" d="M958.687,294.618H947.842a.821.821,0,1,0,0,1.642h10.845a.821.821,0,1,0,0-1.642Z" transform="translate(-169.934 -174.129)" fill="#3f3d56"/>
      <path id="Path_49" data-name="Path 49" d="M958.687,297.7H947.842a.821.821,0,1,0,0,1.642h10.845a.821.821,0,1,0,0-1.643Z" transform="translate(-169.934 -174.129)" fill="#3f3d56"/>
      <path id="Path_50" data-name="Path 50" d="M635.433,458.9H519.923a6.163,6.163,0,0,0-6.154,6.17V647.539H641.6V465.067a6.166,6.166,0,0,0-6.169-6.17ZM578.066,562.576a13.7,13.7,0,0,1-13.64-13.64V527.889a13.64,13.64,0,0,1,27.28,0v21.047a13.7,13.7,0,0,1-13.64,13.64Z" transform="translate(-169.934 -174.129)" fill="#e6e6e6"/>
      <path id="Path_51" data-name="Path 51" d="M513.372,641.7v17.6a3.449,3.449,0,0,0,3.442,3.442H638.557A3.459,3.459,0,0,0,642,659.307V641.7Z" transform="translate(-169.934 -174.129)" fill="#ccc"/>
      <path id="Path_52" data-name="Path 52" d="M826.707,174.129H332.947a16.028,16.028,0,0,0-16,16V523.323a16.018,16.018,0,0,0,16,16h493.76a16.018,16.018,0,0,0,16-16V190.132a16.029,16.029,0,0,0-16-16Z" transform="translate(-169.934 -174.129)" fill="#e6e6e6"/>
      <path id="Path_53" data-name="Path 53" d="M822.585,185.688H337.072a8.577,8.577,0,0,0-8.558,8.576V519.2a8.573,8.573,0,0,0,8.558,8.558H822.585a8.573,8.573,0,0,0,8.558-8.558V194.264a8.577,8.577,0,0,0-8.558-8.576Z" transform="translate(-169.934 -174.129)" fill="#fff"/>
      <path id="Path_54" data-name="Path 54" d="M831.144,194.264V519.2a8.573,8.573,0,0,1-8.558,8.558h-171.2a210.092,210.092,0,0,1-45.834-61.67q-1.121-2.242-2.135-4.537a208.227,208.227,0,0,1-18.5-71.225c-.125-1.512-.231-3.025-.3-4.555-.231-3.914-.338-7.882-.338-11.868a209.128,209.128,0,0,1,14.75-77.417c.587-1.53,1.21-3.043,1.85-4.555A210.665,210.665,0,0,1,701.131,185.688H822.585a8.577,8.577,0,0,1,8.559,8.576Z" transform="translate(-169.934 -174.129)" fill="#23ce6b"/>
      <path id="Path_55" data-name="Path 55" d="M798.18,230.457H343.887a1.807,1.807,0,1,1,0-3.614H798.18a1.807,1.807,0,1,1,0,3.614Z" transform="translate(-169.934 -174.129)" fill="#cacaca"/>
      <ellipse id="Ellipse_9" data-name="Ellipse 9" cx="10.587" cy="10.823" rx="10.587" ry="10.823" transform="translate(194.288 21.843)" fill="#3f3d56"/>
      <ellipse id="Ellipse_10" data-name="Ellipse 10" cx="10.587" cy="10.823" rx="10.587" ry="10.823" transform="translate(230.865 21.843)" fill="#3f3d56"/>
      <ellipse id="Ellipse_11" data-name="Ellipse 11" cx="10.587" cy="10.823" rx="10.587" ry="10.823" transform="translate(267.44 21.843)" fill="#3f3d56"/>
      <path id="Path_56" data-name="Path 56" d="M776.158,198.655H750.177a1.967,1.967,0,1,0,0,3.935h25.981a1.967,1.967,0,1,0,0-3.935Z" transform="translate(-169.934 -174.129)" fill="#3f3d56"/>
      <path id="Path_57" data-name="Path 57" d="M776.158,206.039H750.177a1.967,1.967,0,1,0,0,3.935h25.981a1.967,1.967,0,1,0,0-3.935Z" transform="translate(-169.934 -174.129)" fill="#3f3d56"/>
      <path id="Path_58" data-name="Path 58" d="M776.158,213.414H750.177a1.967,1.967,0,1,0,0,3.935h25.981a1.967,1.967,0,1,0,0-3.935Z" transform="translate(-169.934 -174.129)" fill="#3f3d56"/>
      <rect id="Rectangle_7" data-name="Rectangle 7" width="72.207" height="15.441" rx="4.339" transform="translate(245.183 161.871)" fill="#23ce6b"/>
      <rect id="Rectangle_8" data-name="Rectangle 8" width="145.55" height="15.441" rx="4.339" transform="translate(208.512 192.752)" fill="#e6e6e6"/>
      <rect id="Rectangle_9" data-name="Rectangle 9" width="145.55" height="15.441" rx="4.339" transform="translate(208.512 223.633)" fill="#e6e6e6"/>
      <path id="Path_59" data-name="Path 59" d="M390.326,509.127a53.05,53.05,0,0,1-3.345,18.629H337.072a8.573,8.573,0,0,1-8.558-8.558V456.424a52.716,52.716,0,0,1,8.434-.676,53.376,53.376,0,0,1,53.379,53.382Z" transform="translate(-169.934 -174.129)" fill="#6c63ff"/>
      <path id="Path_60" data-name="Path 60" d="M831.589,296.484v-4.555H755.24V239.138H750.7v52.791H663.2V239.138H658.66v52.791H600.869c-.641,1.512-1.263,3.025-1.851,4.555H658.66v89.285H584.606c.071,1.53.178,3.043.3,4.555H658.66v71.225H603.413q1.014,2.3,2.135,4.537H658.66v59.872H663.2V466.086H750.7v59.872h4.537V466.086h76.349v-4.537H755.24a71.225,71.225,0,0,1,71.225-71.225h5.124v-4.555H755.24V296.484ZM750.7,461.548H663.2V390.324H750.7Zm0-75.78H663.2v-1.779A87.505,87.505,0,0,1,750.7,296.484h0Z" transform="translate(-169.934 -174.129)" opacity="0.2"/>
      <path id="Path_61" data-name="Path 61" d="M770.116,494.045a4.755,4.755,0,0,1-3.446-8.241l.326-1.3-.129-.311c-4.377-10.438-19.213-10.366-23.553.088-3.852,9.278-8.757,18.572-9.964,28.382a37.777,37.777,0,0,0,.663,12.991,151.444,151.444,0,0,1-13.776-62.9,146.178,146.178,0,0,1,.907-16.307q.751-6.658,2.084-13.222a153.2,153.2,0,0,1,30.381-64.93,40.77,40.77,0,0,0,16.956-17.592,31.1,31.1,0,0,0,2.828-8.5c-.825.108-1.664.176-2.49.23l-.785.041-.1,0a4.711,4.711,0,0,1-3.869-7.675l1.07-1.315c.541-.677,1.1-1.34,1.637-2.016a2.342,2.342,0,0,0,.176-.2c.623-.771,1.245-1.529,1.868-2.3a13.623,13.623,0,0,0-4.466-4.317c-6.239-3.654-14.845-1.123-19.352,4.52s-5.372,13.56-3.8,20.61c1.34,6.036,4.263,11.57,7.551,16.835-.338.433-.69.853-1.029,1.286a154.19,154.19,0,0,0-16.093,25.5,64.1,64.1,0,0,0-3.827-29.772c-3.663-8.836-10.528-16.278-16.574-23.917-7.262-9.175-22.153-5.171-23.433,6.46q-.019.169-.036.338,1.347.76,2.637,1.613a6.449,6.449,0,0,1-2.6,11.737l-.132.02a64.179,64.179,0,0,0,1.692,9.595,66.073,66.073,0,0,0,32.9,41.41c.528.271,1.042.541,1.57.8a157.38,157.38,0,0,0-8.471,39.867,149.27,149.27,0,0,0,.108,24.1l-.041-.284A39.443,39.443,0,0,0,704.037,452.6c-10.362-8.512-25-11.647-36.181-18.489-5.381-3.294-12.277.963-11.338,7.2q.022.149.046.3a43.332,43.332,0,0,1,4.858,2.341q1.347.76,2.637,1.613a6.45,6.45,0,0,1-2.6,11.737l-.132.02-.271.041a64.228,64.228,0,0,0,11.814,18.5,66.131,66.131,0,0,0,47.96,21.043h.014a157.331,157.331,0,0,0,10.569,30.855H769.17c.135-.419.257-.853.379-1.272a42.9,42.9,0,0,1-10.447-.622c2.8-3.437,5.6-6.9,8.4-10.339a2.347,2.347,0,0,0,.176-.2c1.421-1.759,2.855-3.5,4.276-5.264v0a62.834,62.834,0,0,0-1.841-16.007ZM726.88,408.993l.02-.027-.02.054Zm-8.363,75.391-.325-.731c.014-.528.014-1.056,0-1.6,0-.149-.027-.3-.027-.447.122.934.23,1.868.365,2.8Z" transform="translate(-169.934 -174.129)" fill="#2f2e41"/>
      <path id="Path_62" data-name="Path 62" d="M433.911,405.741h0V355a29.369,29.369,0,0,0-29.369-29.369H297.035A29.369,29.369,0,0,0,267.666,355V633.38a29.369,29.369,0,0,0,29.369,29.369H404.542a29.369,29.369,0,0,0,29.369-29.369V441.861h0a1.852,1.852,0,0,0,1.852-1.852V407.594a1.852,1.852,0,0,0-1.852-1.853Z" transform="translate(-169.934 -174.129)" fill="#e6e6e6"/>
      <path id="Path_63" data-name="Path 63" d="M427.661,355.2v277.98a21.919,21.919,0,0,1-21.693,21.92,1.9,1.9,0,0,1-.237.01H297.7a21.932,21.932,0,0,1-21.93-21.928V355.2a21.932,21.932,0,0,1,21.928-21.93h13.112a10.427,10.427,0,0,0,9.65,14.36h61.59a10.435,10.435,0,0,0,9.64-14.36h14.04a21.932,21.932,0,0,1,21.93,21.928Z" transform="translate(-169.934 -174.129)" fill="#fff"/>
      <path id="Path_64" data-name="Path 64" d="M406.241,646.529q0,4.32-.27,8.57a1.91,1.91,0,0,1-.24.01H297.7a21.932,21.932,0,0,1-21.93-21.928V509.3a137.388,137.388,0,0,1,130.47,137.23Z" transform="translate(-169.934 -174.129)" fill="#f2f2f2"/>
      <path id="Path_65" data-name="Path 65" d="M268.261,434.129a2.5,2.5,0,0,1-2.5-2.5v-17a2.5,2.5,0,0,1,5,0v17A2.5,2.5,0,0,1,268.261,434.129Z" transform="translate(-169.934 -174.129)" fill="#e6e6e6"/>
      <rect id="Rectangle_10" data-name="Rectangle 10" width="35.207" height="15.441" rx="4.339" transform="translate(164.178 246.426)" fill="#23ce6b"/>
      <rect id="Rectangle_11" data-name="Rectangle 11" width="108.55" height="15.441" rx="4.339" transform="translate(127.507 277.307)" fill="#e6e6e6"/>
      <rect id="Rectangle_12" data-name="Rectangle 12" width="108.55" height="15.441" rx="4.339" transform="translate(127.507 308.188)" fill="#e6e6e6"/>
      <path id="Path_66" data-name="Path 66" d="M377.621,639.29A2.231,2.231,0,0,1,376,635.423l.153-.608-.061-.146a5.992,5.992,0,0,0-11.053.041c-1.808,4.354-4.109,8.715-4.676,13.319a17.726,17.726,0,0,0,.311,6.1,71.068,71.068,0,0,1-6.465-29.517,68.6,68.6,0,0,1,.425-7.652q.353-3.125.978-6.2a71.891,71.891,0,0,1,14.257-30.469,19.133,19.133,0,0,0,7.957-8.255,14.594,14.594,0,0,0,1.327-3.988c-.387.051-.781.083-1.168.108l-.368.019-.046,0a2.211,2.211,0,0,1-1.816-3.6l.5-.617c.254-.318.514-.629.768-.946a1.1,1.1,0,0,0,.083-.1c.292-.362.584-.718.876-1.08a6.392,6.392,0,0,0-2.1-2.026c-2.928-1.715-6.966-.527-9.081,2.121s-2.521,6.363-1.784,9.672a25.616,25.616,0,0,0,3.544,7.9c-.159.2-.324.4-.483.6a72.345,72.345,0,0,0-7.552,11.964,30.078,30.078,0,0,0-1.8-13.971c-1.719-4.146-4.941-7.639-7.778-11.223a6.174,6.174,0,0,0-11,3.032q-.009.079-.017.159.632.357,1.238.757a3.027,3.027,0,0,1-1.22,5.508l-.062.01a30.116,30.116,0,0,0,.794,4.5,31.006,31.006,0,0,0,15.438,19.432c.248.127.489.254.737.375A73.854,73.854,0,0,0,352.9,619.35a70.057,70.057,0,0,0,.051,11.31l-.019-.133a18.509,18.509,0,0,0-6.319-10.688c-4.863-3.995-11.733-5.465-16.978-8.676a3.474,3.474,0,0,0-5.32,3.379l.021.14a20.324,20.324,0,0,1,2.28,1.1q.632.357,1.237.757a3.027,3.027,0,0,1-1.22,5.508l-.062.009-.127.019a30.14,30.14,0,0,0,5.544,8.681,31.033,31.033,0,0,0,22.506,9.875h.006a73.83,73.83,0,0,0,4.96,14.479h17.718c.064-.2.121-.4.178-.6a20.13,20.13,0,0,1-4.9-.292c1.315-1.613,2.629-3.239,3.944-4.852a1.113,1.113,0,0,0,.083-.1c.667-.826,1.34-1.645,2.007-2.47h0a29.487,29.487,0,0,0-.864-7.512Zm-20.289-39.912.009-.013-.009.025Zm-3.925,35.378-.152-.343c.006-.248.006-.5,0-.749,0-.07-.013-.14-.013-.21.057.438.108.876.171,1.315Z" transform="translate(-169.934 -174.129)" fill="#ccc"/>
      <path id="Path_67" data-name="Path 67" d="M267.761,401.129a2.5,2.5,0,0,1-2.5-2.5v-17a2.5,2.5,0,0,1,5,0v17a2.5,2.5,0,0,1-2.5,2.5Z" transform="translate(-169.934 -174.129)" fill="#e6e6e6"/>
      <path id="Path_68" data-name="Path 68" d="M334.261,336.129a2.5,2.5,0,0,1,2.5-2.5h17a2.5,2.5,0,0,1,0,5h-17A2.5,2.5,0,0,1,334.261,336.129Z" transform="translate(-169.934 -174.129)" fill="#fff"/>
      <path id="Path_69" data-name="Path 69" d="M268.261,463.129a2.5,2.5,0,0,1-2.5-2.5v-17a2.5,2.5,0,0,1,5,0v17a2.5,2.5,0,0,1-2.5,2.5Z" transform="translate(-169.934 -174.129)" fill="#e6e6e6"/>
      <circle id="Ellipse_12" data-name="Ellipse 12" cx="2.5" cy="2.5" r="2.5" transform="translate(190.826 159.5)" fill="#fff"/>
      <path id="Path_70" data-name="Path 70" d="M1028.88,662.742l-857.75.307a1.191,1.191,0,1,1,0-2.381l857.75-.307a1.191,1.191,0,1,1,0,2.381Z" transform="translate(-169.934 -174.129)" fill="#cacaca"/>
      <path id="Path_72" data-name="Path 72" d="M379.495,532.711h9.386l4.466-36.2H379.493Z" fill="#ffb6b6"/>
      <path id="Path_73" data-name="Path 73" d="M547.1,702.21l14.838-.886v6.357l14.107,9.742a3.971,3.971,0,0,1-2.256,7.239H556.125l-3.045-6.288-1.189,6.288h-6.66Z" transform="translate(-169.934 -174.129)" fill="#2f2e41"/>
      <path id="Path_74" data-name="Path 74" d="M269.531,522.494l8.164,4.632,21.75-29.285L287.4,491.005Z" fill="#ffb6b6"/>
      <path id="Path_75" data-name="Path 75" d="M439.726,691.448,453.068,698l-3.137,5.529,7.461,15.435a3.971,3.971,0,0,1-5.535,5.182l-15.364-8.717.455-6.972-4.137,4.882-5.793-3.287Z" transform="translate(-169.934 -174.129)" fill="#2f2e41"/>
      <path id="Path_76" data-name="Path 76" d="M584.124,406.578a8.313,8.313,0,0,0-6.7,10.844l-14.363,12.432,5.426,10.571,20.037-17.841a8.358,8.358,0,0,0-4.4-16.005Z" transform="translate(-169.934 -174.129)" fill="#ffb6b6"/>
      <path id="Path_77" data-name="Path 77" d="M569.66,449.329c-4.791,7.256-15.529,14.264-31.465,20.477a6.839,6.839,0,0,1-5.5-.18c-6.014-2.737-9.868-12.912-10.23-13.9l-11.648-15.713c-.207-.229-5.654-6.411-5.031-12.488a8.877,8.877,0,0,1,3.823-6.362c8.817-6.536,28.579,16.165,31.143,19.183l12.9-7.858,9.4-4.193,7.586-9.231,10.682,10.92-9.607,15.283a18.416,18.416,0,0,1-2.049,4.059Z" transform="translate(-169.934 -174.129)" fill="#2f2e41"/>
      <path id="Path_78" data-name="Path 78" d="M536.162,477.169s27.6,43.961,22.6,48.961-12.781,6.313-12.781,6.313L528.76,510.13Z" transform="translate(-169.934 -174.129)" fill="#2f2e41"/>
      <path id="Path_79" data-name="Path 79" d="M511.761,417.129l13.007,8.8A33.552,33.552,0,0,1,537.84,464.2l-3.662,11.13Z" transform="translate(-169.934 -174.129)" fill="#2f2e41"/>
      <path id="Path_80" data-name="Path 80" d="M318.826,363l-1.739,6.057L311.153,442.1l-29.646,55.25,14.149,10.106L336.083,454.9l15.99-52.183,25.111,115.519,18.866-1.348-13.1-160.165-24.863-45.083Z" fill="#2f2e41"/>
      <path id="Path_81" data-name="Path 81" d="M509.548,419.342l18.1,14.795a24.655,24.655,0,0,1,8.184,12.6h0a24.653,24.653,0,0,1,.865,6.9l-.539,32.127,16.6,44.361s-45,17-51,2S509.548,419.342,509.548,419.342Z" transform="translate(-169.934 -174.129)" fill="#23ce6b"/>
      <path id="Path_82" data-name="Path 82" d="M514.963,539.916c-22.48,0-27.959.169-28.314.1l-.356-.072V526.42l5.467-24.291c-.639-7.541-2.136-17.485-2-26,.49-30.775-1.023-60.837-1.023-60.837l11.9-10.983,5.405,3.518,10.026,10.026c11.654,28.681,20.9,55.684,20.961,57.418l.733,29.858-3,12C521.189,526.71,533.589,539.916,514.963,539.916Z" transform="translate(-169.934 -174.129)" fill="#2f2e41"/>
      <path id="Path_83" data-name="Path 83" d="M323.846,267.973l-2.733,17.058,18.5,7.631Z" opacity="0.2"/>
      <circle id="Ellipse_13" data-name="Ellipse 13" cx="18.114" cy="18.114" r="18.114" transform="translate(324.37 190.753)" fill="#ffb6b6"/>
      <path id="Path_84" data-name="Path 84" d="M482.067,474.9h0a33.272,33.272,0,0,0,39.939,8.073l3.942-1.951Z" transform="translate(-169.934 -174.129)" opacity="0.2"/>
      <path id="Path_85" data-name="Path 85" d="M545.1,470.733a8.313,8.313,0,0,0-12.741.385l-18.289-5.134-5.831,10.353,25.929,6.888A8.358,8.358,0,0,0,545.1,470.733Z" transform="translate(-169.934 -174.129)" fill="#ffb6b6"/>
      <path id="Path_86" data-name="Path 86" d="M501.454,482.222c-8.7,0-20.461-5.1-34.427-14.972a6.839,6.839,0,0,1-2.88-4.687c-1.03-6.527,5.336-15.35,5.96-16.2l6.693-18.378c.077-.3,2.234-8.25,7.648-11.08a8.877,8.877,0,0,1,7.415-.316c10.313,3.756,2.26,32.756,1.155,36.559l13.664,6.431,8.677,5.531,11.883,1.243-3.226,14.931-18.047.406A18.42,18.42,0,0,1,501.454,482.222Z" transform="translate(-169.934 -174.129)" fill="#2f2e41"/>
      <path id="Path_88" data-name="Path 88" d="M611.961,699.466l.482-10.832A34.984,34.984,0,0,1,628.76,684.5c-7.837,6.407-6.858,18.758-12.171,27.375a21.043,21.043,0,0,1-15.431,9.724l-6.558,4.015a35.261,35.261,0,0,1,7.432-28.573,34.058,34.058,0,0,1,6.26-5.816C609.863,695.37,611.961,699.466,611.961,699.466Z" transform="translate(-169.934 -174.129)" fill="#f2f2f2"/>
      <path id="Path_89" data-name="Path 89" d="M627.861,725.871H399.479a1.191,1.191,0,1,1,0-2.381H627.861a1.191,1.191,0,1,1,0,2.381Z" transform="translate(-169.934 -174.129)" fill="#cacaca"/>
    </g>
    <path id="Path_90" data-name="Path 90" d="M797.54,380c-.018-.244-.044-.5-.079-.741a25.638,25.638,0,0,0-1.478-5.234c-.656-1.841-1.321-3.69-1.986-5.531a15.8,15.8,0,0,1-.743,10.049c-3.84-2.983-1.417-9.8-6.437-9.8-12.07,0-24.49-9.761-24.49-21.808s5.178-21.041,17.248-21.041,21.874,5.513,22.11,17.551C786.817,346.935,800.347,378.783,797.54,380Z" transform="translate(664.008 -99.042)" fill="#2f2e41"/>
    <path id="Path_29" data-name="Path 29" d="M889.851,317.314l-1.792-2.214c-4.2,6.472-12.752,8.92-18.307,14.365-9.111,8.938-8.112,23.465-4.836,35.589s8.253,24.68,5,36.822c-2.166,8.1-7.8,14.923-13.807,20.963-5.667,5.706-12.388,11.161-19.894,13.924a41.2,41.2,0,0,0-2.007-6.382c-1-2.7-2-5.409-3.006-8.1A22.43,22.43,0,0,1,830.077,437c-.206.486-.439.972-.682,1.449a26.779,26.779,0,0,1-4.341.189,25.063,25.063,0,0,1-10.521-2.844,49.056,49.056,0,0,0-1.792-5.41c-1-2.7-2-5.41-3.006-8.1a22.079,22.079,0,0,1,.224,10.531,26.685,26.685,0,0,1-9.531-14.932c-2.409-11.08,2.875-23.132,12.276-29.91,6.871-4.95,15.375-7.192,23.124-10.756s15.347-9.28,17.018-17.39c2.493-12.133-9.055-22.835-10.652-35.1-1.531-11.827,7.916-23.987,20.118-25.886S887.452,305.622,889.851,317.314Z" transform="translate(532.132 -79.192)" fill="#2f2e41"/>
    <path id="Path_27" data-name="Path 27" d="M779.721,345.894c-.975-2.63-.55-1.26-1.536-3.88a6.315,6.315,0,0,1-.28,3.88H750.917v-15.12c7.907-3.02,15.637-5.59,20.306,0,8.664,0,15.688,6.769,15.689,15.119Z" transform="translate(690.256 -100.624)" fill="#2f2e41"/>
    <ellipse id="Ellipse_14" data-name="Ellipse 14" cx="13.5" cy="13" rx="13.5" ry="13" transform="translate(1408.484 226.852)" fill="#2f2e41"/>
  </g>
</svg>
