<svg xmlns="http://www.w3.org/2000/svg" width="512" height="512" enable-background="new 0 0 512 512" viewBox="0 0 512 512"><polygon fill="#23CE6B" points="230.571 142.196 255.677 169.207 246.127 186.6 224.521 152.896"/><polygon fill="#23CE6B" points="281.429 142.196 255.677 169.207 265.872 186.6 287.479 152.896"/><path fill="#23CE6B" d="M229.233,25.35c0,0,54.722-1.949,46.539,33.15
		s-69.28,24.994-42.373,71.799c0,0,38.545,25.155,65.156-23.322c0,0,17.72-12.29,3.832-18.383
		C302.387,88.594,317.3-6.466,229.233,25.35z" enable-background="new" opacity=".3"/><polygon fill="#23CE6B" points="396.01 366.605 417.357 389.575 409.236 404.365 390.865 375.705"/><polygon fill="#23CE6B" points="439.256 366.605 417.357 389.575 426.026 404.365 444.399 375.705"/><polygon fill="#23CE6B" points="234.378 366.605 255.726 389.575 247.604 404.365 229.233 375.705"/><polygon fill="#23CE6B" points="277.623 366.605 255.726 389.575 264.395 404.365 282.768 375.705"/><polygon fill="#23CE6B" points="73.63 366.605 94.978 389.575 86.857 404.365 68.486 375.705"/><polygon fill="#23CE6B" points="116.875 366.605 94.978 389.575 103.647 404.365 122.02 375.705"/><path fill="none" d="M162.005 187.026c-.255 0-.512-.019-.771-.06-3.336-.517-6.689-1.068-9.964-1.641-2.72-.475-4.54-3.065-4.065-5.786.476-2.72 3.066-4.542 5.786-4.065 3.212.561 6.501 1.102 9.774 1.609 2.729.422 4.599 2.977 4.176 5.706C166.558 185.26 164.429 187.026 162.005 187.026zM132.507 181.551c-.354 0-.712-.038-1.071-.116-3.313-.724-6.63-1.489-9.86-2.275-2.683-.652-4.329-3.357-3.677-6.04.653-2.683 3.356-4.329 6.04-3.677 3.153.767 6.395 1.515 9.632 2.222 2.698.59 4.407 3.254 3.817 5.952C136.875 179.956 134.806 181.551 132.507 181.551zM103.452 174.077c-.476 0-.96-.069-1.438-.212-3.282-.985-6.54-2.019-9.683-3.067-2.619-.875-4.033-3.708-3.158-6.327.875-2.619 3.706-4.036 6.327-3.158 3.045 1.018 6.204 2.018 9.389 2.974 2.645.794 4.146 3.582 3.352 6.227C107.588 172.678 105.602 174.077 103.452 174.077zM75.182 164.049c-.646 0-1.3-.125-1.932-.39-3.22-1.35-6.363-2.751-9.346-4.167-2.495-1.184-3.557-4.167-2.372-6.661 1.184-2.494 4.166-3.559 6.661-2.372 2.842 1.349 5.844 2.688 8.922 3.978 2.547 1.067 3.746 3.997 2.679 6.544C78.993 162.896 77.136 164.049 75.182 164.049zM48.513 150.377c-.919 0-1.85-.253-2.682-.783-3.042-1.938-5.92-3.945-8.556-5.966-2.191-1.681-2.605-4.819-.925-7.01 1.681-2.191 4.819-2.605 7.01-.925 2.407 1.845 5.045 3.685 7.843 5.467 2.329 1.483 3.016 4.574 1.531 6.903C51.782 149.56 50.165 150.377 48.513 150.377zM26.115 130.689c-1.523 0-3.026-.693-4.008-2.007-2.32-3.103-4.225-6.305-5.658-9.515-1.126-2.521.005-5.479 2.526-6.604 2.521-1.126 5.479.004 6.604 2.525 1.132 2.536 2.659 5.095 4.536 7.606 1.654 2.211 1.201 5.345-1.011 6.998C28.207 130.365 27.156 130.689 26.115 130.689zM18.557 102.639c-.309 0-.62-.029-.935-.088-2.713-.512-4.498-3.127-3.984-5.841.682-3.614 1.926-7.229 3.696-10.744 1.242-2.466 4.25-3.457 6.715-2.215 2.467 1.243 3.458 4.249 2.216 6.715-1.352 2.68-2.293 5.404-2.803 8.099C23.011 100.965 20.913 102.639 18.557 102.639zM358.117 185.873c-2.396 0-4.512-1.727-4.924-4.167-.461-2.723 1.373-5.303 4.096-5.764 3.268-.552 6.547-1.14 9.746-1.748 2.713-.515 5.33 1.266 5.846 3.979s-1.268 5.33-3.979 5.845c-3.267.62-6.612 1.22-9.944 1.784C358.676 185.85 358.394 185.873 358.117 185.873zM387.53 179.952c-2.267 0-4.317-1.55-4.862-3.851-.635-2.688 1.029-5.381 3.718-6.016 3.237-.765 6.462-1.568 9.586-2.388 2.67-.701 5.403.896 6.104 3.567.701 2.671-.896 5.405-3.566 6.105-3.201.84-6.507 1.664-9.824 2.447C388.299 179.909 387.91 179.952 387.53 179.952zM416.437 171.928c-2.109 0-4.07-1.345-4.755-3.459-.853-2.627.587-5.447 3.214-6.298 3.167-1.026 6.297-2.099 9.304-3.186 2.598-.939 5.463.405 6.402 3.001.938 2.596-.404 5.463-3.002 6.402-3.11 1.125-6.349 2.234-9.62 3.295C417.468 171.849 416.947 171.928 416.437 171.928zM444.427 161.154c-1.896 0-3.708-1.083-4.549-2.919-1.149-2.51-.047-5.478 2.464-6.628 3.028-1.388 5.972-2.827 8.746-4.279 2.445-1.28 5.468-.335 6.747 2.112 1.28 2.447.336 5.468-2.11 6.749-2.929 1.533-6.03 3.05-9.219 4.511C445.832 161.008 445.123 161.154 444.427 161.154zM470.453 146.327c-1.547 0-3.072-.716-4.051-2.064-1.622-2.235-1.124-5.361 1.11-6.982 2.676-1.941 5.155-3.938 7.368-5.937 2.051-1.85 5.213-1.687 7.062.363 1.851 2.05 1.688 5.212-.362 7.062-2.476 2.234-5.232 4.456-8.193 6.604C472.498 146.017 471.471 146.327 470.453 146.327zM490.761 124.627c-.793 0-1.598-.189-2.346-.587-2.438-1.297-3.361-4.325-2.064-6.763 1.416-2.66 2.432-5.364 3.021-8.038.595-2.697 3.27-4.4 5.957-3.809 2.697.594 4.402 3.261 3.81 5.958-.783 3.563-2.115 7.124-3.958 10.587C494.279 123.664 492.55 124.627 490.761 124.627zM492.367 95.749c-1.957 0-3.813-1.156-4.615-3.075-1.069-2.562-2.538-5.145-4.366-7.679-1.615-2.24-1.108-5.365 1.131-6.98 2.239-1.613 5.365-1.109 6.979 1.131 2.274 3.154 4.119 6.409 5.483 9.675 1.063 2.548-.14 5.476-2.688 6.541C493.663 95.624 493.01 95.749 492.367 95.749z"/><path fill="none" stroke="#23CE6B" stroke-linecap="round" stroke-linejoin="round" stroke-miterlimit="10" stroke-width="10" d="M256.323 138.354v.011c-.104 0-.218 0-.322-.011C256.116 138.365 256.219 138.365 256.323 138.354zM256.001 138.354c-.103.011-.218.011-.32.011v-.011C255.783 138.365 255.889 138.365 256.001 138.354zM417.907 363.34v.01c-.089 0-.186 0-.273-.01C417.73 363.35 417.818 363.35 417.907 363.34z"/><path fill="none" stroke="#23CE6B" stroke-linecap="round" stroke-linejoin="round" stroke-miterlimit="10" stroke-width="10" d="M417.634 363.34c-.087.01-.187.01-.273.01v-.01C417.447 363.35 417.537 363.35 417.634 363.34zM256.275 363.34v.01c-.089 0-.187 0-.274-.01C256.099 363.35 256.187 363.35 256.275 363.34zM256.001 363.34c-.087.01-.186.01-.272.01v-.01C255.815 363.35 255.905 363.35 256.001 363.34zM95.528 363.34v.01c-.089 0-.187 0-.274-.01C95.351 363.35 95.439 363.35 95.528 363.34zM95.253 363.34c-.087.01-.186.01-.272.01v-.01C95.068 363.35 95.158 363.35 95.253 363.34z"/><path fill="#23CE6B" d="M477.893,386.417c-0.16-0.097-0.326-0.186-0.496-0.264l-25.157-11.608l-4.144-2.46l-4.488-7.939
		c-0.019-0.034-0.038-0.067-0.058-0.1l-2.603-4.366c9.071-7.006,14.79-16.228,16.662-19.534c5.75-3.938,8.623-8.299,8.543-12.972
		c-0.066-3.833-2.11-6.653-3.907-8.398c1.383-22.605-2.98-39.543-12.98-50.367c-8.992-9.733-20.342-11.919-26.647-12.325
		l-0.261-39.116c-0.019-2.749-2.252-4.967-5-4.967h-65.549c-0.411-9.935-3.814-32.678-25.396-45.754
		c-0.16-0.097-0.326-0.185-0.496-0.264l-29.626-13.67l-5.113-3.035l-5.395-9.541c-0.019-0.033-0.038-0.066-0.058-0.099l-3.462-5.809
		c11.075-8.32,17.993-19.627,20.089-23.362c7.131-4.833,10.411-10.137,9.754-15.778c-0.428-3.669-2.535-6.528-4.541-8.394
		c1.687-26.538-3.358-46.374-15.01-58.985C280.622,14.395,265.073,13,258.941,13c-1.277,0-2.287,0.056-2.938,0.107
		c-0.651-0.051-1.66-0.107-2.936-0.107c-6.132,0-21.682,1.395-33.614,14.311c-11.652,12.611-16.697,32.448-15.01,58.985
		c-2.056,1.904-4.543,5.115-4.62,9.542c-0.091,5.226,3.213,10.142,9.822,14.627c2.095,3.735,9.014,15.043,20.092,23.363
		l-3.461,5.809c-0.02,0.032-0.039,0.065-0.057,0.098l-5.395,9.541l-5.114,3.036l-29.625,13.67c-0.17,0.079-0.335,0.167-0.496,0.264
		c-21.582,13.076-24.986,35.819-25.396,45.754H94.978c-1.331,0-2.607,0.531-3.546,1.475c-0.938,0.944-1.462,2.224-1.454,3.555
		l0.229,39.058c-6.318,0.417-17.62,2.621-26.582,12.321c-10.001,10.824-14.364,27.762-12.982,50.367
		c-1.796,1.745-3.842,4.565-3.908,8.399c-0.081,4.673,2.79,9.031,8.535,12.971c1.871,3.306,7.59,12.528,16.666,19.535l-2.601,4.365
		c-0.02,0.033-0.039,0.066-0.057,0.1l-4.488,7.939l-4.144,2.46l-25.157,11.608c-0.17,0.078-0.336,0.167-0.496,0.264
		C11.15,400.861,12.97,428.941,13.06,430.13c0.197,2.625,2.387,4.618,4.979,4.618c0.121,0,0.243-0.004,0.365-0.013
		c2.748-0.198,4.818-2.59,4.629-5.339c-0.065-0.938-1.365-23.021,16.909-34.285l25.127-11.595c0.157-0.072,0.309-0.152,0.458-0.24
		l5.512-3.271c0.75-0.445,1.371-1.08,1.8-1.84l5.116-9.05l2.504-4.202c4.279,1.992,9.044,3.302,14.279,3.423
		c0.124,0.008,0.25,0.011,0.376,0.011c0.093,0,0.188,0,0.28,0c0.127,0,0.252-0.003,0.376-0.011
		c5.233-0.121,9.998-1.431,14.275-3.423l2.504,4.202l5.118,9.051c0.43,0.76,1.05,1.394,1.8,1.839l5.511,3.271
		c0.148,0.088,0.301,0.168,0.458,0.24l25.127,11.595c18.268,11.26,16.974,33.33,16.908,34.284c-0.199,2.748,1.863,5.14,4.612,5.347
		c0.127,0.009,0.254,0.014,0.38,0.014c1.196,0,2.295-0.439,3.164-1.156c0.868,0.712,1.964,1.148,3.158,1.148
		c0.121,0,0.243-0.004,0.365-0.013c2.748-0.198,4.818-2.59,4.629-5.339c-0.065-0.938-1.365-23.021,16.909-34.285l25.127-11.595
		c0.157-0.072,0.309-0.152,0.458-0.24l5.512-3.271c0.75-0.445,1.371-1.079,1.8-1.839l5.116-9.05l2.505-4.203
		c4.279,1.992,9.044,3.302,14.279,3.423c0.124,0.008,0.25,0.011,0.376,0.011c0.093,0,0.188,0,0.28,0
		c0.127,0,0.252-0.003,0.377-0.011c5.233-0.121,9.997-1.431,14.274-3.423l2.505,4.203l5.117,9.05c0.43,0.76,1.05,1.394,1.8,1.839
		l5.511,3.271c0.148,0.088,0.302,0.168,0.458,0.24l25.129,11.595c18.267,11.26,16.972,33.33,16.906,34.284
		c-0.198,2.748,1.864,5.14,4.613,5.347c0.127,0.009,0.254,0.014,0.379,0.014c1.411,0,2.689-0.605,3.606-1.568
		c0.916,0.959,2.191,1.561,3.601,1.561c0.121,0,0.242-0.004,0.365-0.013c2.748-0.198,4.818-2.59,4.629-5.339
		c-0.064-0.938-1.365-23.021,16.908-34.285l25.127-11.595c0.156-0.072,0.31-0.152,0.457-0.24l5.512-3.271
		c0.751-0.445,1.371-1.079,1.801-1.839l5.117-9.05l2.504-4.203c4.278,1.992,9.043,3.302,14.278,3.423
		c0.124,0.008,0.249,0.011,0.376,0.011c0.093,0,0.186,0,0.28,0c0.127,0,0.252-0.003,0.377-0.011
		c5.234-0.121,9.998-1.431,14.276-3.424l2.505,4.203l5.115,9.05c0.429,0.76,1.05,1.395,1.8,1.84l5.511,3.271
		c0.148,0.088,0.302,0.168,0.458,0.24l25.129,11.595c18.273,11.264,16.973,33.347,16.908,34.271
		c-0.206,2.753,1.858,5.153,4.612,5.36c0.127,0.009,0.254,0.014,0.379,0.014c2.592,0,4.784-1.999,4.981-4.626
		C499.914,428.942,501.736,400.861,477.893,386.417z M217.891,104.697c-0.406-0.792-1.015-1.46-1.765-1.938
		c-4.66-2.967-6.313-5.421-6.306-6.729c0.007-1.259,1.639-2.695,2.336-3.128c1.648-0.971,2.598-2.796,2.447-4.703
		c-1.981-24.998,2.122-43.2,12.194-54.102C236.05,24.082,248.251,23,253.067,23c1.259,0,2.122,0.07,2.434,0.101
		c0.322,0.032,0.686,0.032,1.006,0c0.313-0.03,1.175-0.101,2.435-0.101c4.816,0,17.016,1.081,26.269,11.096
		c10.071,10.902,14.175,29.105,12.193,54.103c-0.151,1.91,0.801,3.721,2.42,4.687c0.748,0.471,2.354,1.893,2.36,3.141
		c0.007,1.308-1.647,3.764-6.313,6.732c-0.746,0.475-1.356,1.146-1.763,1.933c-0.146,0.282-14.824,28.228-37.878,28.664
		c-0.022,0-0.045,0.001-0.067,0.001c-0.054-0.001-0.107-0.002-0.161-0.002c-0.053,0-0.107,0.001-0.16,0.002
		c-0.022,0-0.044-0.001-0.066-0.001C232.712,132.919,218.033,104.974,217.891,104.697z M190.538,174.941l29.597-13.658
		c0.156-0.072,0.309-0.152,0.457-0.24l6.481-3.847c0.75-0.445,1.371-1.08,1.8-1.839l6.021-10.65l3.358-5.637
		c5.121,2.489,10.857,4.137,17.183,4.28c0.186,0.012,0.375,0.016,0.566,0.01c0.055,0.001,0.11,0.002,0.165,0.002
		c0.136,0,0.27-0.004,0.402-0.012c6.323-0.143,12.058-1.791,17.178-4.279l3.358,5.636l6.021,10.65c0.43,0.759,1.05,1.393,1.8,1.838
		l6.48,3.847c0.148,0.088,0.302,0.168,0.458,0.241l29.599,13.658c17.118,10.522,19.963,28.89,20.345,37.059H170.192
		C170.576,203.822,173.424,185.461,190.538,174.941z M95.434,358.341c-0.061,0-0.12-0.001-0.18-0.001c-0.06,0-0.119,0-0.178,0.001
		c-19.155-0.361-31.444-23.732-31.562-23.961c-0.406-0.792-1.015-1.461-1.765-1.938c-3.971-2.528-5.017-4.431-5.015-5.084
		c0.002-0.614,0.993-1.628,1.618-2.022c1.647-0.971,2.597-2.796,2.446-4.702c-1.667-21.04,1.755-36.328,10.173-45.438
		C78.637,266.896,88.759,266,92.755,266c1.04,0,1.744,0.058,1.999,0.082c0.163,0.016,0.336,0.023,0.509,0.023
		c0.001,0,0.002,0,0.003,0c0.003,0,0.005-0.001,0.008-0.001c0.165-0.001,0.329-0.007,0.483-0.022
		c0.254-0.024,0.959-0.082,1.999-0.082c3.996,0,14.119,0.896,21.785,9.193c8.417,9.111,11.84,24.398,10.172,45.439
		c-0.151,1.906,0.742,3.698,2.39,4.669c0.681,0.428,1.67,1.44,1.672,2.053c0.001,0.653-1.045,2.557-5.021,5.086
		c-0.746,0.475-1.356,1.146-1.762,1.932C126.87,334.608,114.581,357.979,95.434,358.341z M230.082,364.046
		c-0.02,0.033-0.039,0.065-0.057,0.099l-4.489,7.94l-4.144,2.46l-25.157,11.608c-0.17,0.078-0.336,0.167-0.496,0.264
		c-12.215,7.4-17.686,18.375-20.113,27.483c-2.426-9.108-7.897-20.083-20.113-27.483c-0.16-0.097-0.326-0.186-0.496-0.264
		l-25.157-11.608l-4.143-2.46l-4.49-7.94c-0.019-0.033-0.038-0.065-0.057-0.099l-2.602-4.366
		c9.072-7.006,14.791-16.228,16.663-19.534c5.75-3.938,8.623-8.299,8.542-12.972c-0.066-3.833-2.11-6.653-3.906-8.398
		c1.381-22.605-2.981-39.543-12.982-50.368c-9.007-9.748-20.38-11.926-26.679-12.327L100.008,222h150.701l0.239,34.088
		c-6.319,0.418-17.616,2.624-26.575,12.32c-10.001,10.824-14.364,27.762-12.982,50.367c-1.796,1.745-3.842,4.565-3.908,8.399
		c-0.081,4.673,2.79,9.031,8.535,12.971c1.872,3.306,7.59,12.528,16.666,19.535L230.082,364.046z M256.182,358.341
		c-0.061,0-0.12-0.001-0.18-0.001s-0.118,0-0.178,0.001c-19.155-0.361-31.444-23.732-31.562-23.961
		c-0.406-0.792-1.015-1.461-1.765-1.938c-3.971-2.528-5.017-4.431-5.015-5.084c0.002-0.614,0.993-1.628,1.618-2.022
		c1.647-0.971,2.597-2.796,2.446-4.702c-1.667-21.04,1.755-36.328,10.173-45.438c7.667-8.299,17.789-9.194,21.785-9.194
		c1.04,0,1.744,0.058,1.999,0.082c0.148,0.015,0.305,0.021,0.462,0.021c0.007,0,0.012,0.002,0.019,0.002c0.012,0,0.024,0,0.036,0
		c0.004,0,0.008-0.001,0.012-0.001c0.161-0.001,0.322-0.008,0.475-0.022c0.255-0.024,0.959-0.082,1.998-0.082
		c3.997,0,14.119,0.896,21.785,9.193c8.418,9.111,11.84,24.398,10.173,45.439c-0.15,1.894,0.758,3.692,2.389,4.668
		c0.681,0.428,1.672,1.44,1.674,2.054c0.001,0.653-1.046,2.557-5.021,5.086c-0.746,0.475-1.357,1.146-1.763,1.932
		C287.618,334.608,275.329,357.979,256.182,358.341z M391.715,364.047c-0.019,0.032-0.038,0.064-0.057,0.098l-4.49,7.94l-4.145,2.46
		l-25.155,11.608c-0.17,0.078-0.336,0.167-0.496,0.264c-13.022,7.89-18.381,19.84-20.556,29.262
		c-2.174-9.422-7.531-21.372-20.554-29.262c-0.16-0.097-0.326-0.186-0.496-0.264l-25.157-11.608l-4.144-2.46l-4.49-7.94
		c-0.019-0.033-0.038-0.066-0.058-0.099l-2.602-4.366c9.072-7.006,14.791-16.228,16.663-19.534
		c5.734-3.928,8.606-8.275,8.543-12.936c-0.053-3.831-2.109-6.669-3.907-8.423c1.384-22.612-2.979-39.553-12.981-50.38
		c-9.01-9.751-20.388-11.927-26.686-12.327L260.71,222H412.39l0.227,34.085c-6.312,0.412-17.636,2.607-26.612,12.323
		c-10.001,10.824-14.364,27.762-12.982,50.367c-1.797,1.745-3.842,4.565-3.908,8.399c-0.081,4.673,2.789,9.031,8.534,12.971
		c1.872,3.306,7.592,12.528,16.667,19.535L391.715,364.047z M417.812,358.341c-0.059,0.001-0.118-0.001-0.179-0.001
		s-0.123,0.001-0.179,0.001c-19.156-0.361-31.444-23.732-31.563-23.961c-0.405-0.792-1.015-1.461-1.765-1.938
		c-3.972-2.528-5.018-4.431-5.016-5.084c0.002-0.614,0.993-1.628,1.618-2.022c1.647-0.971,2.598-2.796,2.446-4.702
		c-1.667-21.04,1.756-36.328,10.173-45.438c7.667-8.299,17.789-9.194,21.785-9.194c1.039,0,1.743,0.058,1.998,0.082
		c0.092,0.009,0.188-0.004,0.284,0c0.079,0.004,0.153,0.023,0.233,0.023c0.012,0,0.023,0,0.034,0c0.075,0,0.144-0.02,0.218-0.023
		c0.078-0.004,0.158,0.008,0.233,0c0.255-0.024,0.959-0.082,1.999-0.082c3.996,0,14.119,0.896,21.785,9.194
		c8.417,9.11,11.84,24.397,10.172,45.438c-0.151,1.907,0.742,3.699,2.391,4.67c0.681,0.428,1.671,1.44,1.672,2.053
		c0.002,0.653-1.045,2.557-5.021,5.086c-0.751,0.478-1.36,1.147-1.767,1.939C449.246,334.615,437.057,357.978,417.812,358.341z"/><path fill="none" d="M467.535,473.104l-44.64-44.64c-0.073-0.073-0.161-0.128-0.239-0.196c-0.636-2.029-2.509-3.512-4.749-3.512
		H94.98c-2.453,0-4.485,1.771-4.909,4.102l-43.376,43.377c-1.953,1.952-1.953,5.118,0,7.07c1.953,1.953,5.118,1.953,7.071,0
		L94,439.071l40.495,40.494c0.977,0.977,2.256,1.465,3.536,1.465s2.559-0.488,3.536-1.465c1.953-1.952,1.953-5.118,0-7.07
		l-37.738-37.738h142.345l-37.107,37.108c-1.953,1.952-1.953,5.118,0,7.07c0.977,0.977,2.256,1.465,3.536,1.465
		s2.559-0.488,3.536-1.465L256,439.071l38.955,38.954c1.951,1.953,5.119,1.953,7.07,0c1.953-1.952,1.953-5.118,0-7.07
		l-36.198-36.198h143.706l-37.527,37.528c-1.953,1.952-1.953,5.118,0,7.07c1.951,1.953,5.119,1.953,7.07,0l40.284-40.284
		l41.104,41.104c0.976,0.977,2.256,1.465,3.535,1.465s2.56-0.488,3.535-1.465C469.488,478.223,469.488,475.057,467.535,473.104z"/><path fill="none" d="M486.4 484.62c0 3.938-1.811 7.46-4.641 9.78-2.17 1.778-4.96 2.84-7.979 2.84-6.979 0-12.63-5.65-12.63-12.62 0-3.021 1.061-5.812 2.85-7.98 2.311-2.83 5.83-4.64 9.78-4.64C480.75 472 486.4 477.65 486.4 484.62zM53.86 484.62c0 6.97-5.65 12.62-12.62 12.62-3.45 0-6.58-1.38-8.85-3.63-2.33-2.29-3.771-5.472-3.771-8.99 0-6.97 5.65-12.62 12.62-12.62 3.521 0 6.7 1.44 8.99 3.771C52.48 478.04 53.86 481.17 53.86 484.62zM159.88 484.62c0 3.648-1.55 6.938-4.029 9.229-2.25 2.11-5.271 3.392-8.59 3.392-6.971 0-12.62-5.65-12.62-12.62 0-3.32 1.279-6.34 3.39-8.59 2.29-2.48 5.58-4.03 9.23-4.03C154.23 472 159.88 477.65 159.88 484.62zM216.61 484.62c0 6.97-5.65 12.62-12.62 12.62-3.64 0-6.92-1.54-9.22-4.011-2.11-2.25-3.4-5.279-3.4-8.609 0-6.97 5.65-12.62 12.62-12.62 3.34 0 6.36 1.29 8.61 3.4C215.07 477.7 216.61 480.979 216.61 484.62zM319.801 483.62c0 3.37-1.319 6.43-3.49 8.688-2.279 2.421-5.529 3.932-9.13 3.932-6.97 0-12.62-5.65-12.62-12.62 0-3.602 1.511-6.852 3.931-9.13 2.261-2.17 5.319-3.49 8.689-3.49C314.15 471 319.801 476.65 319.801 483.62zM378.24 483.62c0 6.97-5.649 12.62-12.62 12.62-2.939 0-5.659-1.011-7.8-2.7-2.939-2.311-4.82-5.9-4.82-9.92 0-6.971 5.65-12.62 12.62-12.62 4.021 0 7.61 1.88 9.921 4.82C377.23 477.96 378.24 480.68 378.24 483.62zM99 58.5C99 80.87 80.87 99 58.5 99c-13.58 0-25.59-6.68-32.939-16.93C20.8 75.43 18 67.29 18 58.5 18 36.13 36.13 18 58.5 18c15.96 0 29.75 9.22 36.36 22.63C97.51 46.02 99 52.09 99 58.5zM495 58.5c0 8.79-2.8 16.93-7.56 23.57C480.091 92.32 468.08 99 454.5 99 432.131 99 414 80.87 414 58.5c0-6.41 1.49-12.48 4.141-17.87C424.75 27.22 438.541 18 454.5 18 476.87 18 495 36.13 495 58.5z"/></svg>