<svg xmlns="http://www.w3.org/2000/svg" width="512" height="512"><path fill="#23CE6B" d="m230.571 142.196 25.106 27.011-9.55 17.393-21.606-33.704z"/><path fill="#23CE6B" d="m281.429 142.196-25.752 27.011 10.195 17.393 21.607-33.704z"/><path fill="#23CE6B" d="M229.233 25.35s54.722-1.949 46.539 33.15-69.28 24.994-42.373 71.799c0 0 38.545 25.155 65.156-23.322 0 0 17.72-12.29 3.832-18.383 0 0 14.913-95.06-73.154-63.244z" opacity=".3"/><path fill="#23CE6B" d="m396.01 366.605 21.347 22.97-8.121 14.79-18.371-28.66zM439.256 366.605l-21.899 22.97 8.669 14.79 18.373-28.66zM234.378 366.605l21.348 22.97-8.122 14.79-18.371-28.66zM277.623 366.605l-21.897 22.97 8.669 14.79 18.373-28.66zM73.63 366.605l21.348 22.97-8.121 14.79-18.371-28.66zM116.875 366.605l-21.897 22.97 8.669 14.79 18.373-28.66z"/><path fill="none" d="M162.005 187.026c-.255 0-.512-.019-.771-.06a521.598 521.598 0 0 1-9.964-1.641 5 5 0 1 1 1.721-9.851c3.212.561 6.501 1.102 9.774 1.609a4.999 4.999 0 0 1 4.176 5.706 5.003 5.003 0 0 1-4.936 4.237zm-29.498-5.475c-.354 0-.712-.038-1.071-.116a431.652 431.652 0 0 1-9.86-2.275 5 5 0 0 1 2.363-9.717c3.153.767 6.395 1.515 9.632 2.222a5 5 0 0 1 3.817 5.952 5.004 5.004 0 0 1-4.881 3.934zm-29.055-7.474c-.476 0-.96-.069-1.438-.212a337.04 337.04 0 0 1-9.683-3.067 5 5 0 0 1 3.169-9.485 318.917 318.917 0 0 0 9.389 2.974 5 5 0 0 1-1.437 9.79zm-28.27-10.028a4.98 4.98 0 0 1-1.932-.39 222.601 222.601 0 0 1-9.346-4.167 4.999 4.999 0 0 1-2.372-6.661 4.998 4.998 0 0 1 6.661-2.372 212.055 212.055 0 0 0 8.922 3.978 5 5 0 0 1-1.933 9.612zm-26.669-13.672a4.98 4.98 0 0 1-2.682-.783 120.77 120.77 0 0 1-8.556-5.966 5 5 0 0 1 6.085-7.935 110.676 110.676 0 0 0 7.843 5.467 4.998 4.998 0 0 1-2.69 9.217zm-22.398-19.688a4.99 4.99 0 0 1-4.008-2.007c-2.32-3.103-4.225-6.305-5.658-9.515a5 5 0 0 1 9.13-4.079c1.132 2.536 2.659 5.095 4.536 7.606a4.999 4.999 0 0 1-1.011 6.998 4.965 4.965 0 0 1-2.989.997zm-7.558-28.05a4.998 4.998 0 0 1-4.919-5.929c.682-3.614 1.926-7.229 3.696-10.744a5 5 0 0 1 8.931 4.5c-1.352 2.68-2.293 5.404-2.803 8.099a4.998 4.998 0 0 1-4.905 4.074zm339.56 83.234a5 5 0 0 1-.828-9.931c3.268-.552 6.547-1.14 9.746-1.748a5 5 0 0 1 1.867 9.824 510.86 510.86 0 0 1-9.944 1.784 5.017 5.017 0 0 1-.841.071zm29.413-5.921a5 5 0 0 1-1.144-9.867 403.188 403.188 0 0 0 9.586-2.388 5 5 0 0 1 2.538 9.672c-3.201.84-6.507 1.664-9.824 2.447a4.95 4.95 0 0 1-1.156.136zm28.907-8.024a5.002 5.002 0 0 1-1.541-9.757 294.285 294.285 0 0 0 9.304-3.186 5 5 0 1 1 3.4 9.403 305.778 305.778 0 0 1-9.62 3.295 5.002 5.002 0 0 1-1.543.245zm27.99-10.774a5 5 0 0 1-2.085-9.547 186.848 186.848 0 0 0 8.746-4.279 5.001 5.001 0 0 1 4.637 8.861 196.21 196.21 0 0 1-9.219 4.511 4.995 4.995 0 0 1-2.079.454zm26.026-14.827a4.999 4.999 0 0 1-2.941-9.046c2.676-1.941 5.155-3.938 7.368-5.937a5 5 0 0 1 6.7 7.425 99.425 99.425 0 0 1-8.193 6.604 4.985 4.985 0 0 1-2.934.954zm20.308-21.7a5 5 0 0 1-4.41-7.35c1.416-2.66 2.432-5.364 3.021-8.038a5.007 5.007 0 0 1 5.957-3.809 5.002 5.002 0 0 1 3.81 5.958c-.783 3.563-2.115 7.124-3.958 10.587a5.006 5.006 0 0 1-4.42 2.652zm1.606-28.878a5 5 0 0 1-4.615-3.075c-1.069-2.562-2.538-5.145-4.366-7.679a5 5 0 0 1 8.11-5.849c2.274 3.154 4.119 6.409 5.483 9.675a5.002 5.002 0 0 1-4.612 6.928z"/><path fill="none" stroke="#23CE6B" stroke-linecap="round" stroke-linejoin="round" stroke-miterlimit="10" stroke-width="10" d="M256.323 138.354v.011c-.104 0-.218 0-.322-.011.115.011.218.011.322 0zm-.322 0c-.103.011-.218.011-.32.011v-.011c.102.011.208.011.32 0zM417.907 363.34v.01c-.089 0-.186 0-.273-.01.096.01.184.01.273 0z"/><path fill="none" stroke="#23CE6B" stroke-linecap="round" stroke-linejoin="round" stroke-miterlimit="10" stroke-width="10" d="M417.634 363.34c-.087.01-.187.01-.273.01v-.01c.086.01.176.01.273 0zm-161.359 0v.01c-.089 0-.187 0-.274-.01.098.01.186.01.274 0zm-.274 0c-.087.01-.186.01-.272.01v-.01c.086.01.176.01.272 0zm-160.473 0v.01c-.089 0-.187 0-.274-.01.097.01.185.01.274 0zm-.275 0c-.087.01-.186.01-.272.01v-.01c.087.01.177.01.272 0z"/><path fill="#23CE6B" d="M477.893 386.417a4.905 4.905 0 0 0-.496-.264l-25.157-11.608-4.144-2.46-4.488-7.939a3.26 3.26 0 0 0-.058-.1l-2.603-4.366c9.071-7.006 14.79-16.228 16.662-19.534 5.75-3.938 8.623-8.299 8.543-12.972-.066-3.833-2.11-6.653-3.907-8.398 1.383-22.605-2.98-39.543-12.98-50.367-8.992-9.733-20.342-11.919-26.647-12.325l-.261-39.116a5 5 0 0 0-5-4.967h-65.549c-.411-9.935-3.814-32.678-25.396-45.754a5.115 5.115 0 0 0-.496-.264l-29.626-13.67-5.113-3.035-5.395-9.541-.058-.099-3.462-5.809c11.075-8.32 17.993-19.627 20.089-23.362 7.131-4.833 10.411-10.137 9.754-15.778-.428-3.669-2.535-6.528-4.541-8.394 1.687-26.538-3.358-46.374-15.01-58.985C280.622 14.395 265.073 13 258.941 13c-1.277 0-2.287.056-2.938.107a38.052 38.052 0 0 0-2.936-.107c-6.132 0-21.682 1.395-33.614 14.311-11.652 12.611-16.697 32.448-15.01 58.985-2.056 1.904-4.543 5.115-4.62 9.542-.091 5.226 3.213 10.142 9.822 14.627 2.095 3.735 9.014 15.043 20.092 23.363l-3.461 5.809a1.92 1.92 0 0 0-.057.098l-5.395 9.541-5.114 3.036-29.625 13.67c-.17.079-.335.167-.496.264-21.582 13.076-24.986 35.819-25.396 45.754H94.978a5.002 5.002 0 0 0-5 5.03l.229 39.058c-6.318.417-17.62 2.621-26.582 12.321-10.001 10.824-14.364 27.762-12.982 50.367-1.796 1.745-3.842 4.565-3.908 8.399-.081 4.673 2.79 9.031 8.535 12.971 1.871 3.306 7.59 12.528 16.666 19.535l-2.601 4.365c-.02.033-.039.066-.057.1l-4.488 7.939-4.144 2.46-25.157 11.608c-.17.078-.336.167-.496.264C11.15 400.861 12.97 428.941 13.06 430.13a4.992 4.992 0 0 0 5.344 4.605 5.008 5.008 0 0 0 4.629-5.339c-.065-.938-1.365-23.021 16.909-34.285l25.127-11.595c.157-.072.309-.152.458-.24l5.512-3.271a4.995 4.995 0 0 0 1.8-1.84l5.116-9.05 2.504-4.202c4.279 1.992 9.044 3.302 14.279 3.423.124.008.25.011.376.011h.28c.127 0 .252-.003.376-.011 5.233-.121 9.998-1.431 14.275-3.423l2.504 4.202 5.118 9.051a5 5 0 0 0 1.8 1.839l5.511 3.271c.148.088.301.168.458.24l25.127 11.595c18.268 11.26 16.974 33.33 16.908 34.284a5 5 0 0 0 4.992 5.361 4.96 4.96 0 0 0 3.164-1.156 4.967 4.967 0 0 0 3.523 1.135 5.008 5.008 0 0 0 4.629-5.339c-.065-.938-1.365-23.021 16.909-34.285l25.127-11.595c.157-.072.309-.152.458-.24l5.512-3.271a4.992 4.992 0 0 0 1.8-1.839l5.116-9.05 2.505-4.203c4.279 1.992 9.044 3.302 14.279 3.423.124.008.25.011.376.011h.28c.127 0 .252-.003.377-.011 5.233-.121 9.997-1.431 14.274-3.423l2.505 4.203 5.117 9.05a5 5 0 0 0 1.8 1.839l5.511 3.271c.148.088.302.168.458.24l25.129 11.595c18.267 11.26 16.972 33.33 16.906 34.284a5.002 5.002 0 0 0 4.992 5.361c1.411 0 2.689-.605 3.606-1.568a4.971 4.971 0 0 0 3.966 1.548 5.008 5.008 0 0 0 4.629-5.339c-.064-.938-1.365-23.021 16.908-34.285l25.127-11.595c.156-.072.31-.152.457-.24l5.512-3.271a4.995 4.995 0 0 0 1.801-1.839l5.117-9.05 2.504-4.203c4.278 1.992 9.043 3.302 14.278 3.423.124.008.249.011.376.011h.28c.127 0 .252-.003.377-.011 5.234-.121 9.998-1.431 14.276-3.424l2.505 4.203 5.115 9.05a4.995 4.995 0 0 0 1.8 1.84l5.511 3.271c.148.088.302.168.458.24l25.129 11.595c18.273 11.264 16.973 33.347 16.908 34.271a5 5 0 0 0 9.972.748c.092-1.189 1.914-29.27-21.929-43.714zm-260.002-281.72a5.005 5.005 0 0 0-1.765-1.938c-4.66-2.967-6.313-5.421-6.306-6.729.007-1.259 1.639-2.695 2.336-3.128a5 5 0 0 0 2.447-4.703c-1.981-24.998 2.122-43.2 12.194-54.102C236.05 24.082 248.251 23 253.067 23c1.259 0 2.122.07 2.434.101.322.032.686.032 1.006 0 .313-.03 1.175-.101 2.435-.101 4.816 0 17.016 1.081 26.269 11.096 10.071 10.902 14.175 29.105 12.193 54.103a5 5 0 0 0 2.42 4.687c.748.471 2.354 1.893 2.36 3.141.007 1.308-1.647 3.764-6.313 6.732a5.039 5.039 0 0 0-1.763 1.933c-.146.282-14.824 28.228-37.878 28.664l-.067.001-.161-.002-.16.002-.066-.001c-23.064-.437-37.743-28.382-37.885-28.659zm-27.353 70.244 29.597-13.658a4.97 4.97 0 0 0 .457-.24l6.481-3.847a5 5 0 0 0 1.8-1.839l6.021-10.65 3.358-5.637c5.121 2.489 10.857 4.137 17.183 4.28.186.012.375.016.566.01l.165.002c.136 0 .27-.004.402-.012 6.323-.143 12.058-1.791 17.178-4.279l3.358 5.636 6.021 10.65a5.005 5.005 0 0 0 1.8 1.838l6.48 3.847c.148.088.302.168.458.241l29.599 13.658c17.118 10.522 19.963 28.89 20.345 37.059H170.192c.384-8.178 3.232-26.539 20.346-37.059zm-95.104 183.4-.18-.001-.178.001c-19.155-.361-31.444-23.732-31.562-23.961a4.998 4.998 0 0 0-1.765-1.938c-3.971-2.528-5.017-4.431-5.015-5.084.002-.614.993-1.628 1.618-2.022a5 5 0 0 0 2.446-4.702c-1.667-21.04 1.755-36.328 10.173-45.438 7.666-8.3 17.788-9.196 21.784-9.196 1.04 0 1.744.058 1.999.082.163.016.336.023.509.023h.003l.008-.001a5.38 5.38 0 0 0 .483-.022c.254-.024.959-.082 1.999-.082 3.996 0 14.119.896 21.785 9.193 8.417 9.111 11.84 24.398 10.172 45.439-.151 1.906.742 3.698 2.39 4.669.681.428 1.67 1.44 1.672 2.053.001.653-1.045 2.557-5.021 5.086a5.033 5.033 0 0 0-1.762 1.932c-.122.236-12.411 23.607-31.558 23.969zm134.648 5.705a1.95 1.95 0 0 0-.057.099l-4.489 7.94-4.144 2.46-25.157 11.608c-.17.078-.336.167-.496.264-12.215 7.4-17.686 18.375-20.113 27.483-2.426-9.108-7.897-20.083-20.113-27.483a4.905 4.905 0 0 0-.496-.264l-25.157-11.608-4.143-2.46-4.49-7.94-.057-.099-2.602-4.366c9.072-7.006 14.791-16.228 16.663-19.534 5.75-3.938 8.623-8.299 8.542-12.972-.066-3.833-2.11-6.653-3.906-8.398 1.381-22.605-2.981-39.543-12.982-50.368-9.007-9.748-20.38-11.926-26.679-12.327L100.008 222h150.701l.239 34.088c-6.319.418-17.616 2.624-26.575 12.32-10.001 10.824-14.364 27.762-12.982 50.367-1.796 1.745-3.842 4.565-3.908 8.399-.081 4.673 2.79 9.031 8.535 12.971 1.872 3.306 7.59 12.528 16.666 19.535l-2.602 4.366zm26.1-5.705-.18-.001-.178.001c-19.155-.361-31.444-23.732-31.562-23.961a4.998 4.998 0 0 0-1.765-1.938c-3.971-2.528-5.017-4.431-5.015-5.084.002-.614.993-1.628 1.618-2.022a5 5 0 0 0 2.446-4.702c-1.667-21.04 1.755-36.328 10.173-45.438 7.667-8.299 17.789-9.194 21.785-9.194 1.04 0 1.744.058 1.999.082.148.015.305.021.462.021l.019.002h.036l.012-.001c.161-.001.322-.008.475-.022.255-.024.959-.082 1.998-.082 3.997 0 14.119.896 21.785 9.193 8.418 9.111 11.84 24.398 10.173 45.439-.15 1.894.758 3.692 2.389 4.668.681.428 1.672 1.44 1.674 2.054.001.653-1.046 2.557-5.021 5.086a5.035 5.035 0 0 0-1.763 1.932c-.124.234-12.413 23.605-31.56 23.967zm135.533 5.706-.057.098-4.49 7.94-4.145 2.46-25.155 11.608c-.17.078-.336.167-.496.264-13.022 7.89-18.381 19.84-20.556 29.262-2.174-9.422-7.531-21.372-20.554-29.262a4.905 4.905 0 0 0-.496-.264l-25.157-11.608-4.144-2.46-4.49-7.94-.058-.099-2.602-4.366c9.072-7.006 14.791-16.228 16.663-19.534 5.734-3.928 8.606-8.275 8.543-12.936-.053-3.831-2.109-6.669-3.907-8.423 1.384-22.612-2.979-39.553-12.981-50.38-9.01-9.751-20.388-11.927-26.686-12.327L260.71 222h151.68l.227 34.085c-6.312.412-17.636 2.607-26.612 12.323-10.001 10.824-14.364 27.762-12.982 50.367-1.797 1.745-3.842 4.565-3.908 8.399-.081 4.673 2.789 9.031 8.534 12.971 1.872 3.306 7.592 12.528 16.667 19.535l-2.601 4.367zm26.097-5.706c-.059.001-.118-.001-.179-.001l-.179.001c-19.156-.361-31.444-23.732-31.563-23.961a4.99 4.99 0 0 0-1.765-1.938c-3.972-2.528-5.018-4.431-5.016-5.084.002-.614.993-1.628 1.618-2.022a4.999 4.999 0 0 0 2.446-4.702c-1.667-21.04 1.756-36.328 10.173-45.438 7.667-8.299 17.789-9.194 21.785-9.194 1.039 0 1.743.058 1.998.082.092.009.188-.004.284 0 .079.004.153.023.233.023h.034c.075 0 .144-.02.218-.023.078-.004.158.008.233 0 .255-.024.959-.082 1.999-.082 3.996 0 14.119.896 21.785 9.194 8.417 9.11 11.84 24.397 10.172 45.438-.151 1.907.742 3.699 2.391 4.67.681.428 1.671 1.44 1.672 2.053.002.653-1.045 2.557-5.021 5.086a5.013 5.013 0 0 0-1.767 1.939c-.117.233-12.306 23.596-31.551 23.959z"/><path fill="none" d="m467.535 473.104-44.64-44.64c-.073-.073-.161-.128-.239-.196-.636-2.029-2.509-3.512-4.749-3.512H94.98a4.994 4.994 0 0 0-4.909 4.102l-43.376 43.377a5 5 0 1 0 7.071 7.07L94 439.071l40.495 40.494c.977.977 2.256 1.465 3.536 1.465s2.559-.488 3.536-1.465a4.998 4.998 0 0 0 0-7.07l-37.738-37.738h142.345l-37.107 37.108a4.998 4.998 0 0 0 3.536 8.535c1.28 0 2.559-.488 3.536-1.465L256 439.071l38.955 38.954a4.998 4.998 0 0 0 7.07 0 4.998 4.998 0 0 0 0-7.07l-36.198-36.198h143.706l-37.527 37.528a4.998 4.998 0 0 0 0 7.07 4.998 4.998 0 0 0 7.07 0l40.284-40.284 41.104 41.104c.976.977 2.256 1.465 3.535 1.465s2.56-.488 3.535-1.465a4.998 4.998 0 0 0 .001-7.071z"/><path fill="none" d="M486.4 484.62c0 3.938-1.811 7.46-4.641 9.78a12.564 12.564 0 0 1-7.979 2.84c-6.979 0-12.63-5.65-12.63-12.62 0-3.021 1.061-5.812 2.85-7.98a12.591 12.591 0 0 1 9.78-4.64c6.97 0 12.62 5.65 12.62 12.62zm-432.54 0c0 6.97-5.65 12.62-12.62 12.62-3.45 0-6.58-1.38-8.85-3.63a12.563 12.563 0 0 1-3.771-8.99c0-6.97 5.65-12.62 12.62-12.62 3.521 0 6.7 1.44 8.99 3.771a12.52 12.52 0 0 1 3.631 8.849zm106.02 0c0 3.648-1.55 6.938-4.029 9.229a12.51 12.51 0 0 1-8.59 3.392c-6.971 0-12.62-5.65-12.62-12.62 0-3.32 1.279-6.34 3.39-8.59 2.29-2.48 5.58-4.03 9.23-4.03 6.969-.001 12.619 5.649 12.619 12.619zm56.73 0c0 6.97-5.65 12.62-12.62 12.62-3.64 0-6.92-1.54-9.22-4.011a12.544 12.544 0 0 1-3.4-8.609c0-6.97 5.65-12.62 12.62-12.62 3.34 0 6.36 1.29 8.61 3.4 2.47 2.3 4.01 5.579 4.01 9.22zm103.191-1c0 3.37-1.319 6.43-3.49 8.688a12.504 12.504 0 0 1-9.13 3.932c-6.97 0-12.62-5.65-12.62-12.62 0-3.602 1.511-6.852 3.931-9.13a12.494 12.494 0 0 1 8.689-3.49c6.969 0 12.62 5.65 12.62 12.62zm58.439 0c0 6.97-5.649 12.62-12.62 12.62a12.573 12.573 0 0 1-7.8-2.7 12.592 12.592 0 0 1-4.82-9.92c0-6.971 5.65-12.62 12.62-12.62 4.021 0 7.61 1.88 9.921 4.82a12.568 12.568 0 0 1 2.699 7.8zM99 58.5C99 80.87 80.87 99 58.5 99c-13.58 0-25.59-6.68-32.939-16.93A40.312 40.312 0 0 1 18 58.5C18 36.13 36.13 18 58.5 18c15.96 0 29.75 9.22 36.36 22.63A40.405 40.405 0 0 1 99 58.5zm396 0c0 8.79-2.8 16.93-7.56 23.57C480.091 92.32 468.08 99 454.5 99 432.131 99 414 80.87 414 58.5c0-6.41 1.49-12.48 4.141-17.87C424.75 27.22 438.541 18 454.5 18c22.37 0 40.5 18.13 40.5 40.5z"/></svg>