<svg viewBox="0 0 48 48" xmlns="http://www.w3.org/2000/svg" xmlns:xlink="http://www.w3.org/1999/xlink"><defs><path fill="#000" id="a" d="m46.557 37.182-9-6.014c-1.498-1.002-2.941-.967-4.189.059-3.504 2.873-5.582 2.049-5.92 1.879-1.982-.992-3.854-1.928-6.741-4.813-3.584-3.586-4.878-5.875-5.812-7.74-.373-.746-.803-3.254 1.65-5.869 1.147-1.221 1.253-2.721.299-4.221-.735-1.156-.735-1.156-1.313-2.006-.57-.84-1.709-2.518-4.713-7.014C10.169.473 9.247 0 8 0 6.586 0 5.87.717 5.293 1.293l-3 3C.169 6.416 0 7.633 0 9c0 1.721 2.485 12.939 14.292 24.705C26.061 45.514 37.268 48 38.988 48h.066c1.355-.02 2.559-.199 4.652-2.293l3-3C47.283 42.131 48 41.414 48 40c0-1.248-.473-2.17-1.443-2.818zm-1.264 4.111-3 3c-1.684 1.684-2.416 1.695-3.305 1.707-.123-.004-10.891-1.273-23.282-13.709C3.415 20.043 2.002 9.096 2 9c0-.887 0-1.586 1.706-3.293l3-3C7.233 2.182 7.443 2 8 2c.653 0 .927.213 1.156.555a976.365 976.365 0 0 0 4.721 7.025c.563.828.563.828 1.28 1.957.568.893.302 1.383-.07 1.779-3.121 3.324-2.66 6.771-1.981 8.131 1.003 2.006 2.39 4.463 6.187 8.26 3.115 3.115 5.223 4.168 7.26 5.188.561.279 1.293.434 2.063.434 1.326 0 3.445-.443 6.02-2.555.365-.301.625-.336.789-.336.287 0 .631.133 1.021.395l9 6.012c.341.227.554.501.554 1.155 0 .557-.182.768-.707 1.293z"/></defs><use xlink:href="#a"/></svg>