<svg xmlns="http://www.w3.org/2000/svg" enable-background="new 0 0 512 512" viewBox="0 0 512 512"><linearGradient id="a" x1="70.556" x2="434.191" y1="67.273" y2="430.909" gradientTransform="matrix(1 0 0 -1 0 512)" gradientUnits="userSpaceOnUse"><stop offset="0" stop-color="#23CE6B"/><stop offset=".5" stop-color="#23CE6B"/><stop offset="1" stop-color="#23CE6B"/></linearGradient><path fill="url(#a)" d="M460.721,281.165c-16.259-13.415-40.275-12.79-55.845,1.39l-50.532,46.04
		c-7.717-9.88-19.301-15.625-31.946-15.625h-54.479c-6.734,0-13.25-1.148-19.36-3.414c-15.532-5.773-46.22-13.524-77.174-0.758
		c-14.783,6.103-20.557,14.367-70.259,54.911c-8.625-4.661-19.605-3.454-26.884,3.825l-24.345,24.345
		c-8.892,8.892-8.892,23.297,0,32.189l81.284,81.284c8.804,8.819,23.271,8.911,32.18,0L187.713,481
		c8.867-8.867,8.867-23.298,0-32.18l-0.047-0.047l5.141-5.141c10.844-10.86,25.595-16.555,40.119-15.563
		c36.126,2.344,72.658-0.531,108.644-8.586c12.743-2.844,24.383-9.25,33.65-18.532l87.081-87.081
		C471.57,304.615,470.745,289.396,460.721,281.165z M176.4,469.686l-24.352,24.344c-2.633,2.633-6.923,2.64-9.555,0.008
		l-81.285-81.284c-2.645-2.661-2.63-6.925,0-9.555l24.345-24.352c2.626-2.626,6.917-2.645,9.563,0
		c85.982,86.214,75.839,75.847,81.276,81.284C179.033,462.764,179.033,467.054,176.4,469.686z M450.986,302.556l-87.081,87.081
		c-7.125,7.133-16.055,12.047-25.821,14.235c-34.509,7.703-69.533,10.492-104.113,8.227c-19.235-1.281-38.376,6.109-52.478,20.22
		l-5.144,5.137c-86.086-86.697-56.395-56.795-62.819-63.264c49.028-40.171,52.669-45.928,63.962-50.603
		c25.891-10.695,52.158-3.992,65.501,0.969c7.899,2.929,16.282,4.414,24.923,4.414h54.479c13.735,0,24.488,11.161,24.392,24.516
		c-0.024,3.665-3.094,6.649-6.836,6.649H217.494c-4.422,0-8,3.578-8,8s3.578,8,8,8h122.457c12.508,0,22.751-10.11,22.837-22.54
		c0.024-3.398-0.375-6.743-1.172-9.977l54.041-49.236c9.719-8.86,24.712-9.258,34.891-0.867
		C453.398,295.855,453.489,300.053,450.986,302.556z M349.399,216.952c31.946-16.946,51.791-49.939,51.791-86.104
		c0-53.697-43.713-97.378-97.441-97.378s-97.441,43.682-97.441,97.378c0,36.165,19.844,69.159,51.791,86.104
		c7.101,3.765,11.516,10.735,11.516,18.203v0.018c-5.926,1.526-10.338,6.867-10.338,13.264v28.055
		c0,11.531,9.383,20.914,20.914,20.914h47.111c11.531,0,20.914-9.383,20.914-20.914v-28.055c0-6.393-4.406-11.732-10.327-13.261
		v-0.021C337.89,227.687,342.296,220.71,349.399,216.952z M265.598,202.811c-26.704-14.157-43.291-41.736-43.291-71.963
		c0-44.869,36.532-81.377,81.44-81.377s81.44,36.509,81.44,81.377c0,30.227-16.586,57.806-43.291,71.963
		c-12.201,6.471-19.801,18.657-19.976,31.884h-36.34C285.407,221.467,277.8,209.282,265.598,202.811z M332.216,276.493
		c0,2.711-2.203,4.915-4.915,4.915h-47.111c-2.711,0-4.915-2.203-4.915-4.915v-25.798h56.939v25.798H332.216z M295.747,18.969V8
		c0-4.422,3.578-8,8-8c4.422,0,8,3.578,8,8v10.969c0,4.422-3.578,8-8,8C299.325,26.969,295.747,23.392,295.747,18.969z
		 M233.933,28.852c-2.211-3.828-0.898-8.719,2.929-10.93c3.812-2.204,8.711-0.914,10.93,2.929l5.484,9.5
		c2.211,3.828,0.898,8.719-2.929,10.93c-3.808,2.199-8.713,0.909-10.93-2.929L233.933,28.852z M187.9,66.885
		c2.211-3.821,7.11-5.141,10.93-2.929l9.5,5.484c3.828,2.211,5.141,7.101,2.929,10.93c-2.236,3.86-7.144,5.116-10.93,2.929
		l-9.5-5.484C187.001,75.603,185.689,70.713,187.9,66.885z M396.242,187.17c2.211-3.828,7.11-5.148,10.93-2.929l9.5,5.484
		c3.828,2.211,5.141,7.101,2.929,10.93c-2.236,3.86-7.144,5.116-10.93,2.929l-9.5-5.484
		C395.344,195.889,394.032,190.998,396.242,187.17z M169.977,133.769c0-4.422,3.578-8,8-8h10.969c4.422,0,8,3.578,8,8s-3.578,8-8,8
		h-10.969C173.556,141.77,169.977,138.192,169.977,133.769z M418.548,125.77h10.969c4.422,0,8,3.578,8,8s-3.578,8-8,8h-10.969
		c-4.422,0-8-3.578-8-8S414.125,125.77,418.548,125.77z M211.26,187.17c2.211,3.828,0.898,8.719-2.929,10.93l-9.5,5.484
		c-3.791,2.19-8.698,0.924-10.93-2.929c-2.211-3.828-0.898-8.719,2.929-10.93l9.5-5.484
		C204.143,182.021,209.041,183.342,211.26,187.17z M396.242,80.369c-2.211-3.828-0.898-8.719,2.929-10.93l9.5-5.484
		c3.812-2.211,8.711-0.89,10.93,2.929c2.211,3.828,0.898,8.719-2.929,10.93l-9.5,5.484C403.381,85.49,398.475,84.223,396.242,80.369
		z M354.217,30.353l5.484-9.5c2.211-3.828,7.11-5.133,10.93-2.929c3.828,2.211,5.141,7.101,2.929,10.93l-5.484,9.5
		c-2.236,3.86-7.144,5.116-10.93,2.929C353.319,39.071,352.007,34.18,354.217,30.353z"/></svg>