<svg xmlns="http://www.w3.org/2000/svg" viewBox="0 0 512 512"><linearGradient id="a" x1="70.556" x2="434.191" y1="67.273" y2="430.909" gradientTransform="matrix(1 0 0 -1 0 512)" gradientUnits="userSpaceOnUse"><stop offset="0" stop-color="#23CE6B"/><stop offset=".5" stop-color="#23CE6B"/><stop offset="1" stop-color="#23CE6B"/></linearGradient><path fill="url(#a)" d="M460.721 281.165c-16.259-13.415-40.275-12.79-55.845 1.39l-50.532 46.04c-7.717-9.88-19.301-15.625-31.946-15.625h-54.479c-6.734 0-13.25-1.148-19.36-3.414-15.532-5.773-46.22-13.524-77.174-.758-14.783 6.103-20.557 14.367-70.259 54.911-8.625-4.661-19.605-3.454-26.884 3.825l-24.345 24.345c-8.892 8.892-8.892 23.297 0 32.189l81.284 81.284c8.804 8.819 23.271 8.911 32.18 0L187.713 481c8.867-8.867 8.867-23.298 0-32.18l-.047-.047 5.141-5.141c10.844-10.86 25.595-16.555 40.119-15.563 36.126 2.344 72.658-.531 108.644-8.586 12.743-2.844 24.383-9.25 33.65-18.532l87.081-87.081c9.269-9.255 8.444-24.474-1.58-32.705zM176.4 469.686l-24.352 24.344c-2.633 2.633-6.923 2.64-9.555.008l-81.285-81.284a6.758 6.758 0 0 1 0-9.555l24.345-24.352c2.626-2.626 6.917-2.645 9.563 0 85.982 86.214 75.839 75.847 81.276 81.284 2.641 2.633 2.641 6.923.008 9.555zm274.586-167.13-87.081 87.081c-7.125 7.133-16.055 12.047-25.821 14.235-34.509 7.703-69.533 10.492-104.113 8.227-19.235-1.281-38.376 6.109-52.478 20.22l-5.144 5.137-62.819-63.264c49.028-40.171 52.669-45.928 63.962-50.603 25.891-10.695 52.158-3.992 65.501.969 7.899 2.929 16.282 4.414 24.923 4.414h54.479c13.735 0 24.488 11.161 24.392 24.516-.024 3.665-3.094 6.649-6.836 6.649H217.494c-4.422 0-8 3.578-8 8s3.578 8 8 8h122.457c12.508 0 22.751-10.11 22.837-22.54a40.463 40.463 0 0 0-1.172-9.977l54.041-49.236c9.719-8.86 24.712-9.258 34.891-.867 2.85 2.338 2.941 6.536.438 9.039zm-101.587-85.604c31.946-16.946 51.791-49.939 51.791-86.104 0-53.697-43.713-97.378-97.441-97.378s-97.441 43.682-97.441 97.378c0 36.165 19.844 69.159 51.791 86.104 7.101 3.765 11.516 10.735 11.516 18.203v.018c-5.926 1.526-10.338 6.867-10.338 13.264v28.055c0 11.531 9.383 20.914 20.914 20.914h47.111c11.531 0 20.914-9.383 20.914-20.914v-28.055c0-6.393-4.406-11.732-10.327-13.261v-.021c.001-7.468 4.407-14.445 11.51-18.203zm-83.801-14.141c-26.704-14.157-43.291-41.736-43.291-71.963 0-44.869 36.532-81.377 81.44-81.377s81.44 36.509 81.44 81.377c0 30.227-16.586 57.806-43.291 71.963-12.201 6.471-19.801 18.657-19.976 31.884h-36.34c-.173-13.228-7.78-25.413-19.982-31.884zm66.618 73.682a4.919 4.919 0 0 1-4.915 4.915H280.19a4.919 4.919 0 0 1-4.915-4.915v-25.798h56.939v25.798h.002zM295.747 18.969V8c0-4.422 3.578-8 8-8 4.422 0 8 3.578 8 8v10.969c0 4.422-3.578 8-8 8-4.422 0-8-3.577-8-8zm-61.814 9.883a8 8 0 0 1 2.929-10.93 7.998 7.998 0 0 1 10.93 2.929l5.484 9.5a8 8 0 0 1-2.929 10.93c-3.808 2.199-8.713.909-10.93-2.929l-5.484-9.5zM187.9 66.885c2.211-3.821 7.11-5.141 10.93-2.929l9.5 5.484a7.998 7.998 0 0 1 2.929 10.93 8.008 8.008 0 0 1-10.93 2.929l-9.5-5.484a8 8 0 0 1-2.929-10.93zM396.242 187.17c2.211-3.828 7.11-5.148 10.93-2.929l9.5 5.484a7.998 7.998 0 0 1 2.929 10.93 8.008 8.008 0 0 1-10.93 2.929l-9.5-5.484a8.001 8.001 0 0 1-2.929-10.93zm-226.265-53.401c0-4.422 3.578-8 8-8h10.969c4.422 0 8 3.578 8 8s-3.578 8-8 8h-10.969a7.995 7.995 0 0 1-8-8zm248.571-7.999h10.969c4.422 0 8 3.578 8 8s-3.578 8-8 8h-10.969c-4.422 0-8-3.578-8-8s3.577-8 8-8zm-207.288 61.4a8 8 0 0 1-2.929 10.93l-9.5 5.484a8 8 0 1 1-8.001-13.859l9.5-5.484c3.813-2.22 8.711-.899 10.93 2.929zM396.242 80.369a8 8 0 0 1 2.929-10.93l9.5-5.484c3.812-2.211 8.711-.89 10.93 2.929a8 8 0 0 1-2.929 10.93l-9.5 5.484c-3.791 2.192-8.697.925-10.93-2.929zm-42.025-50.016 5.484-9.5c2.211-3.828 7.11-5.133 10.93-2.929a7.998 7.998 0 0 1 2.929 10.93l-5.484 9.5a8.008 8.008 0 0 1-10.93 2.929 8.002 8.002 0 0 1-2.929-10.93z"/></svg>