<svg xmlns="http://www.w3.org/2000/svg" width="218.435" height="225.261" viewBox="0 0 218.435 225.261">
  <g id="Group_2" data-name="Group 2" transform="translate(-1116.233 -548.449)">
    <g id="Group_1" data-name="Group 1" transform="translate(691 289)">
      <rect id="Rectangle_12" data-name="Rectangle 12" width="218.435" height="225.261" transform="translate(425.233 259.449)" fill="#2298bd"/>
      <path id="Path_46" data-name="Path 46" d="M692.313,520.19q-32.86,0-41.076,32.86,12.323-16.43,28.753-12.323c6.25,1.562,10.716,6.1,15.661,11.115,8.054,8.176,17.377,17.638,37.737,17.638q32.86,0,41.076-32.86-12.323,16.43-28.753,12.323c-6.25-1.562-10.716-6.1-15.661-11.115C722,529.652,712.674,520.19,692.313,520.19Zm-41.076,49.291q-32.86,0-41.076,32.86,12.323-16.43,28.753-12.323c6.25,1.562,10.716,6.1,15.661,11.115,8.054,8.176,17.377,17.638,37.737,17.638q32.86,0,41.076-32.86-12.323,16.43-28.753,12.323c-6.25-1.562-10.716-6.1-15.661-11.115-8.054-8.177-17.376-17.639-37.737-17.639Z" transform="translate(-157.835 -201.214)" fill="#fff"/>
    </g>
  </g>
</svg>
