<svg xmlns="http://www.w3.org/2000/svg" width="218.435" height="225.261"><g data-name="Group 2"><g data-name="Group 1"><path data-name="Rectangle 12" fill="#2298bd" d="M0 0h218.435v225.261H0z"/><path data-name="Path 46" d="M109.245 59.527q-32.86 0-41.076 32.86 12.323-16.43 28.753-12.323c6.25 1.562 10.716 6.1 15.661 11.115 8.054 8.176 17.377 17.638 37.737 17.638q32.86 0 41.076-32.86-12.323 16.43-28.753 12.323c-6.25-1.562-10.716-6.1-15.661-11.115-8.05-8.176-17.376-17.638-37.737-17.638Zm-41.076 49.291q-32.86 0-41.076 32.86 12.323-16.43 28.753-12.323c6.25 1.562 10.716 6.1 15.661 11.115 8.054 8.176 17.377 17.638 37.737 17.638q32.86 0 41.076-32.86-12.323 16.43-28.753 12.323c-6.25-1.562-10.716-6.1-15.661-11.115-8.054-8.177-17.376-17.639-37.737-17.639Z" fill="#fff"/></g></g></svg>