<svg xmlns="http://www.w3.org/2000/svg" viewBox="0 0 128 128"><path d="M115.76 65.49c-1.61-6.83-5.45-8.35-8.39-8.43a6.85 6.85 0 0 1-4.78-2.37 7.68 7.68 0 0 1-1.82-3.15 14.51 14.51 0 0 0 4.81-11.2c0-6.22-1.2-13.34-10.58-13.34-10.6 0-10.6 6.77-10.6 13.35a14.51 14.51 0 0 0 4.81 11.2 7.71 7.71 0 0 1-1.82 3.15 6.89 6.89 0 0 1-4.77 2.36c-2.94.07-6.78 1.59-8.4 8.42 0 .1 0 .22-.07.33l-.05-.05a10.66 10.66 0 0 1-2.72-4.94c4.16-3.25 6.71-9 6.71-15.32 0-8.37-1.6-18-14.09-18-14.09 0-14.09 9.14-14.09 18 0 6.3 2.55 12.07 6.71 15.32a10.68 10.68 0 0 1-2.73 5c0-.11 0-.22-.07-.33-1.62-6.83-5.47-8.35-8.4-8.42a6.89 6.89 0 0 1-4.82-2.37 7.69 7.69 0 0 1-1.82-3.15 14.51 14.51 0 0 0 4.81-11.2C43.6 33.77 43.6 27 33 27c-9.38 0-10.59 7.16-10.59 13.39a14.51 14.51 0 0 0 4.81 11.2 7.71 7.71 0 0 1-1.82 3.16 6.85 6.85 0 0 1-4.77 2.36c-2.94.07-6.79 1.59-8.39 8.43a1.5 1.5 0 1 0 2.92.69c1.42-6 4.52-6.09 5.55-6.11a9.7 9.7 0 0 0 6.9-3.33 11.27 11.27 0 0 0 2.25-3.59l.42.14.2.07a8.65 8.65 0 0 0 1.11.26h.26a8.59 8.59 0 0 0 1.09.09h.12a8.59 8.59 0 0 0 1.12-.09h.22a8.6 8.6 0 0 0 1.15-.27h.15l.45-.15a11.23 11.23 0 0 0 2.25 3.58 9.75 9.75 0 0 0 6.91 3.34c1 0 4.13.1 5.56 6.11.13.54.24 1.12.35 1.76l-.22.06-.44.23c-.25.12-.5.23-.75.32l-.44.16c-.27.09-.55.16-.82.22l-.39.09a8.53 8.53 0 0 1-1.24.12h-.88l-.48.06h-.27l-.44.08-.31.08-.4.11-.34.11-.38.13-.37.15-.35.16-.39.2-.33.18-.4.25-.3.2-.41.31-.28.23-.42.38-.26.25-.41.44-.24.28-.4.51-.23.31c-.13.19-.26.38-.39.58l-.21.36c-.12.21-.24.42-.36.64l-.21.42c-.11.22-.22.45-.32.69s-.14.34-.21.52-.19.46-.27.71l-.06.15H14.11a63.85 63.85 0 0 1 .3-7.08 1.5 1.5 0 1 0-3-.31 65.6 65.6 0 0 0-.28 9 1.5 1.5 0 0 0 1.5 1.43H35.7c-1.88 8.34-1.42 18.33-1.4 18.75a1.5 1.5 0 0 0 1.5 1.48h56.4a1.5 1.5 0 0 0 1.5-1.43c0-.43.48-10.4-1.4-18.75h12.78a1.5 1.5 0 0 0 0-3H91.45l-.07-.17c-.07-.2-.15-.38-.22-.57s-.18-.46-.28-.68-.16-.35-.25-.53-.2-.41-.3-.6l-.27-.48c-.1-.18-.21-.36-.31-.53l-.29-.43-.33-.46-.3-.38-.35-.41-.32-.34-.36-.35-.32-.29-.37-.3-.33-.25-.38-.26-.33-.21-.4-.22-.33-.17-.39-.19-.32-.13-.42-.15-.31-.1-.43-.11-.29-.07-.45-.08h-.25L82 69.3H81.13a8.49 8.49 0 0 1-1.23-.12l-.4-.18c-.28-.06-.55-.13-.82-.22l-.44-.16c-.25-.1-.51-.21-.76-.33L77 68.1l-.26-.16c.11-.63.22-1.21.35-1.75 1.43-6 4.54-6.09 5.56-6.12a9.74 9.74 0 0 0 6.9-3.33 11.28 11.28 0 0 0 2.25-3.59l.45.15h.14a8.6 8.6 0 0 0 1.15.27h.22a8.59 8.59 0 0 0 1.12.09H95a8.59 8.59 0 0 0 1.09-.09h.26a8.65 8.65 0 0 0 1.11-.26l.2-.07.42-.14a11.21 11.21 0 0 0 2.25 3.58 9.7 9.7 0 0 0 6.91 3.34c1 0 4.13.1 5.55 6.12a52.74 52.74 0 0 1 1 11.67h-3.47a1.5 1.5 0 0 0 0 3h4.93a1.5 1.5 0 0 0 1.5-1.43 58.21 58.21 0 0 0-.99-13.89ZM25.42 40.35C25.42 32.78 27.48 30 33 30c7.28 0 7.59 3.18 7.59 10.39 0 4-1.63 7.53-4.24 9.31a5.77 5.77 0 0 1-6.35.19c-.11-.07-.22-.12-.33-.19-2.67-1.82-4.25-5.38-4.25-9.35Zm27.49 5.15c0-9.33 0-15 11.09-15 9.2 0 11.09 6 11.09 15 0 5.68-2.35 10.81-6.14 13.38a8.63 8.63 0 0 1-7.5 1.17 8.87 8.87 0 0 1-1.23-.49 9.24 9.24 0 0 1-1.22-.67c-3.74-2.58-6.09-7.7-6.09-13.38ZM90.74 98H37.26a75.15 75.15 0 0 1 1.45-16.87c.11-.46.22-.92.37-1.38 1.48-5 4.06-7.45 7.87-7.55q.44 0 .89-.05a12.29 12.29 0 0 0 5.88-2.27 15.38 15.38 0 0 0 5.58-7.44l.15.06c.31.13.61.25.93.36h.08a11.18 11.18 0 0 0 7.07 0h.08c.31-.11.62-.23.93-.36l.15-.06a15.38 15.38 0 0 0 5.58 7.45 13.24 13.24 0 0 0 1.6 1 11.83 11.83 0 0 0 5.17 1.35c3.81.1 6.39 2.57 7.88 7.58.14.44.25.89.36 1.34A75.2 75.2 0 0 1 90.74 98ZM87.4 40.35c0-7.2.31-10.35 7.6-10.35 5.53 0 7.59 2.82 7.59 10.39 0 4-1.63 7.53-4.25 9.31-.12.08-.25.14-.37.21a5.76 5.76 0 0 1-4.69.58 6 6 0 0 1-.83-.33 6.28 6.28 0 0 1-.79-.46c-2.66-1.82-4.26-5.39-4.26-9.35Z" data-name="team work" stroke="#23CE6B" fill="#23CE6B"/></svg>