<svg xmlns="http://www.w3.org/2000/svg" width="821.76" height="601.733" viewBox="0 0 821.76 601.733">
  <g id="Group_1" data-name="Group 1" transform="translate(0 0)">
    <path id="Path_12" data-name="Path 12" d="M437.435,267.476H434.7V192.518a43.384,43.384,0,0,0-43.384-43.384H232.505a43.384,43.384,0,0,0-43.384,43.384V603.747a43.384,43.384,0,0,0,43.384,43.384h158.81A43.384,43.384,0,0,0,434.7,603.747V320.833h2.736Z" transform="translate(-189.121 -149.133)" fill="#3f3d56"/>
    <path id="Path_13" data-name="Path 13" d="M393.066,160.421h-20.73a15.393,15.393,0,0,1-14.251,21.206H267.1a15.393,15.393,0,0,1-14.251-21.206H233.49a32.4,32.4,0,0,0-32.4,32.4V603.446a32.4,32.4,0,0,0,32.4,32.4H393.066a32.4,32.4,0,0,0,32.4-32.4h0V192.819a32.4,32.4,0,0,0-32.4-32.4Z" transform="translate(-189.121 -149.133)" fill="#fff"/>
    <path id="Path_14" data-name="Path 14" d="M391.531,314.215a77.916,77.916,0,0,1-4.911,27.322,75.775,75.775,0,0,1-5.427,11.572,78.277,78.277,0,0,1-135.83,0q-1.041-1.8-1.974-3.662a78.26,78.26,0,1,1,148.142-35.231Z" transform="translate(-189.121 -149.133)" fill="#f1f1f1"/>
    <circle id="Ellipse_2" data-name="Ellipse 2" cx="14.96" cy="14.96" r="14.96" transform="translate(113.266 148.372)" fill="#ff6582"/>
    <path id="Path_15" data-name="Path 15" d="M243.389,349.447c6.591-7.123,15.4-18.433,23.668-10.261,4.148,3.855,10.639,13.406,16.853,7.162l48.522-48.522a9.633,9.633,0,0,1,13.777.247l40.412,43.465a75.8,75.8,0,0,1-5.427,11.572H245.363Z" transform="translate(-189.121 -149.133)" fill="#23ce6b"/>
    <path id="Path_680" data-name="Path 680" d="M349.995,473.123a2.022,2.022,0,1,0,0,4.043h21.214a2.022,2.022,0,1,0,0-4.043Z" transform="translate(-189.121 -149.133)" fill="#6c63ff"/>
    <path id="Path_680-2" data-name="Path 680" d="M254.419,443.43a2.022,2.022,0,0,0,0,4.043H372.137a2.022,2.022,0,1,0,0-4.043Z" transform="translate(-189.121 -149.133)" fill="#e5e5e5"/>
    <path id="Path_680-3" data-name="Path 680" d="M254.419,458.277a2.022,2.022,0,1,0,0,4.043H372.137a2.022,2.022,0,1,0,0-4.043Z" transform="translate(-189.121 -149.133)" fill="#e5e5e5"/>
    <path id="Path_680-4" data-name="Path 680" d="M349.995,568.39a2.022,2.022,0,1,0,0,4.043h21.214a2.022,2.022,0,1,0,0-4.043Z" transform="translate(-189.121 -149.133)" fill="#6c63ff"/>
    <path id="Path_680-5" data-name="Path 680" d="M254.419,538.7a2.022,2.022,0,0,0,0,4.043H372.137a2.022,2.022,0,0,0,0-4.043Z" transform="translate(-189.121 -149.133)" fill="#e5e5e5"/>
    <path id="Path_680-6" data-name="Path 680" d="M254.419,553.543a2.022,2.022,0,1,0,0,4.043H372.137a2.022,2.022,0,1,0,0-4.043Z" transform="translate(-189.121 -149.133)" fill="#e5e5e5"/>
    <path id="Path_16" data-name="Path 16" d="M860.2,377.02l-16.153-7.3a13.163,13.163,0,0,1-18.576,11.5L754.58,349.164a13.163,13.163,0,0,1-3.633-21.545L735.86,320.8a27.706,27.706,0,0,0-36.66,13.83L554.526,654.585a27.706,27.706,0,0,0,13.83,36.66h0L692.7,747.468a27.706,27.706,0,0,0,36.66-13.83h0L874.03,413.68A27.706,27.706,0,0,0,860.2,377.02Z" transform="translate(-189.121 -149.133)" fill="#e4e4e4"/>
    <path id="Path_17" data-name="Path 17" d="M716.3,529.367a68.13,68.13,0,0,1-39.633-55.408c-.117-1.18-.2-2.394-.251-3.6A67.16,67.16,0,0,1,682.4,439.5,67.918,67.918,0,1,1,792.513,515.32a66,66,0,0,1-8.432,7.212A68.135,68.135,0,0,1,716.3,529.367Zm55.141-121.948a65.993,65.993,0,0,0-87.22,32.908,65.182,65.182,0,0,0-5.807,29.944c.049,1.174.13,2.349.243,3.494a65.939,65.939,0,0,0,104.257,47.144,64.008,64.008,0,0,0,8.18-7,65.947,65.947,0,0,0-19.652-106.495Z" transform="translate(-189.121 -149.133)" fill="#fff"/>
    <rect id="Rectangle_1" data-name="Rectangle 1" width="2" height="132.848" transform="translate(532.003 255.588) rotate(-20.96)" fill="#fff"/>
    <rect id="Rectangle_2" data-name="Rectangle 2" width="132.848" height="2" transform="matrix(0.934, -0.358, 0.358, 0.934, 491.669, 341.079)" fill="#fff"/>
    <path id="Path_18" data-name="Path 18" d="M743.321,626.295,625.966,573.23a3.607,3.607,0,0,1-1.8-4.767l11.04-24.415a3.607,3.607,0,0,1,4.767-1.8L757.33,595.315a3.607,3.607,0,0,1,1.8,4.767L748.089,624.5a3.607,3.607,0,0,1-4.768,1.8ZM639.15,544.072a1.6,1.6,0,0,0-2.12.8l-11.04,24.415a1.6,1.6,0,0,0,.8,2.12l117.355,53.065a1.6,1.6,0,0,0,2.12-.8l11.04-24.415a1.6,1.6,0,0,0-.8-2.12Z" transform="translate(-189.121 -149.133)" fill="#fff"/>
    <path id="Path_19" data-name="Path 19" d="M714.893,689.166,597.537,636.1a3.607,3.607,0,0,1-1.8-4.767l11.04-24.415a3.607,3.607,0,0,1,4.767-1.8L728.9,658.186a3.607,3.607,0,0,1,1.8,4.767l-11.04,24.415a3.607,3.607,0,0,1-4.767,1.8ZM610.721,606.944a1.6,1.6,0,0,0-2.12.8l-11.04,24.415a1.6,1.6,0,0,0,.8,2.12l117.356,53.065a1.6,1.6,0,0,0,2.12-.8l11.04-24.415a1.6,1.6,0,0,0-.8-2.12Z" transform="translate(-189.121 -149.133)" fill="#fff"/>
    <path id="Path_20" data-name="Path 20" d="M669.536,530.084A78,78,0,0,0,654.32,497.15a103.131,103.131,0,0,0-27.813-24.5,123.333,123.333,0,0,0-35.607-14.6c-15.61-3.75-31.731-4.972-47.752-4.818-16.136.155-32.221,1.667-48.258,3.351q-3.057.321-6.114.649c-1.9.2-1.921,3.2,0,3,15.8-1.687,31.624-3.345,47.515-3.855,15.761-.506,31.64.114,47.151,3.122a125.781,125.781,0,0,1,36.935,13.058A104.418,104.418,0,0,1,648.9,495.243a77.12,77.12,0,0,1,16.768,31.23c.373,1.459.7,2.929.98,4.408.363,1.894,3.255,1.092,2.893-.8Z" transform="translate(-189.121 -149.133)" fill="#fff"/>
    <path id="Path_21" data-name="Path 21" d="M499.49,435.767l-23.962,25.488a1.514,1.514,0,0,0,.3,2.356l21.618,10.333c1.733.829,3.257-1.757,1.514-2.59L477.346,461.02l.3,2.356,23.962-25.488c1.322-1.406-.8-3.532-2.121-2.121Z" transform="translate(-189.121 -149.133)" fill="#fff"/>
    <path id="Path_22" data-name="Path 22" d="M1009.69,750.867H552.4a1.191,1.191,0,0,1,0-2.381H1009.69a1.191,1.191,0,1,1,0,2.381Z" transform="translate(-189.121 -149.133)" fill="#cacaca"/>
  </g>
</svg>
