<svg xmlns="http://www.w3.org/2000/svg" width="845.03" height="517.737" viewBox="0 0 845.03 517.737">
  <g id="Group_4" data-name="Group 4" transform="translate(-615 -157)">
    <g id="Group_3" data-name="Group 3" transform="translate(615 157)">
      <path id="Path_97" data-name="Path 97" d="M583.821,169.719V566.728a17.839,17.839,0,0,1-17.839,17.831H404.8a17.808,17.808,0,0,1-17.839-17.831V169.719a17.838,17.838,0,0,1,17.84-17.839h24.122v3.1a14.688,14.688,0,0,0,14.688,14.688h81.971a14.688,14.688,0,0,0,14.688-14.688v-3.1h25.706a17.833,17.833,0,0,1,17.839,17.839Z" transform="translate(-62.485 -66.822)" fill="#23ce6b"/>
      <rect id="Rectangle_2" data-name="Rectangle 2" width="182.718" height="88.996" transform="translate(331.562 151.412)" fill="#3f3d56"/>
      <path id="Path_98" data-name="Path 98" d="M467.613,279.343c4.783,17.681,21.166,28.632,21.166,28.632s8.628-17.716,3.845-35.4-21.166-28.632-21.166-28.632S462.83,261.662,467.613,279.343Z" transform="translate(-62.485 -66.822)" fill="#fff"/>
      <path id="Path_99" data-name="Path 99" d="M474.642,275.543c13.125,12.776,14.728,32.417,14.728,32.417s-19.677-1.074-32.8-13.851-14.729-32.417-14.729-32.417S461.517,262.766,474.642,275.543Z" transform="translate(-62.485 -66.822)" fill="#23ce6b"/>
      <path id="Path_100" data-name="Path 100" d="M511.126,279.343c-4.783,17.681-21.166,28.632-21.166,28.632s-8.628-17.716-3.845-35.4,21.166-28.632,21.166-28.632S515.909,261.662,511.126,279.343Z" transform="translate(-62.485 -66.822)" fill="#fff"/>
      <path id="Path_101" data-name="Path 101" d="M504.1,275.543c-13.125,12.776-14.728,32.417-14.728,32.417s19.677-1.074,32.8-13.851S536.9,261.692,536.9,261.692,517.222,262.766,504.1,275.543Z" transform="translate(-62.485 -66.822)" fill="#23ce6b"/>
      <rect id="Rectangle_3" data-name="Rectangle 3" width="150.033" height="8.236" transform="translate(347.904 290.246)" fill="#f0f0f0"/>
      <rect id="Rectangle_4" data-name="Rectangle 4" width="150.033" height="8.236" transform="translate(347.904 303.514)" fill="#f0f0f0"/>
      <rect id="Rectangle_5" data-name="Rectangle 5" width="150.033" height="8.236" transform="translate(347.904 316.783)" fill="#f0f0f0"/>
      <rect id="Rectangle_6" data-name="Rectangle 6" width="150.033" height="8.236" transform="translate(347.904 330.052)" fill="#f0f0f0"/>
      <rect id="Rectangle_7" data-name="Rectangle 7" width="40.954" height="40.954" transform="matrix(0.815, 0.579, -0.579, 0.815, 418.064, 377.318)" fill="#f0f0f0"/>
      <path id="Path_102" data-name="Path 102" d="M489.936,509.851a9.451,9.451,0,1,1,9.451-9.451A9.451,9.451,0,0,1,489.936,509.851Zm0-17.327a7.876,7.876,0,1,0,7.876,7.876,7.876,7.876,0,0,0-7.876-7.876Z" transform="translate(-62.485 -66.822)" fill="#3f3d56"/>
      <path id="Path_103" data-name="Path 103" d="M259.34,84.66V481.67A17.839,17.839,0,0,1,241.5,499.5H80.324A17.808,17.808,0,0,1,62.485,481.67V84.66A17.838,17.838,0,0,1,80.324,66.822h24.123v3.1a14.688,14.688,0,0,0,14.688,14.688h81.971a14.688,14.688,0,0,0,14.689-14.688v-3.1H241.5A17.833,17.833,0,0,1,259.34,84.66Z" transform="translate(-62.485 -66.822)" fill="#f2f2f2"/>
      <path id="Path_104" data-name="Path 104" d="M238.894,283.6H81.379V142.627H238.894Zm-155.94-1.575H237.319V144.2H82.954Z" transform="translate(-62.485 -66.822)" fill="#3f3d56"/>
      <rect id="Rectangle_8" data-name="Rectangle 8" width="1.575" height="209.165" transform="translate(19.156 77.178) rotate(-48.206)" fill="#3f3d56"/>
      <rect id="Rectangle_9" data-name="Rectangle 9" width="209.165" height="1.575" transform="translate(19.155 215.405) rotate(-41.794)" fill="#3f3d56"/>
      <rect id="Rectangle_10" data-name="Rectangle 10" width="155.94" height="1.575" transform="translate(19.681 257.735)" fill="#3f3d56"/>
      <rect id="Rectangle_11" data-name="Rectangle 11" width="155.94" height="1.575" transform="translate(19.681 271.911)" fill="#3f3d56"/>
      <rect id="Rectangle_12" data-name="Rectangle 12" width="155.94" height="1.575" transform="translate(19.681 286.088)" fill="#3f3d56"/>
      <rect id="Rectangle_13" data-name="Rectangle 13" width="77.97" height="1.575" transform="translate(19.681 300.264)" fill="#3f3d56"/>
      <rect id="Rectangle_14" data-name="Rectangle 14" width="77.97" height="1.575" transform="translate(19.681 314.44)" fill="#3f3d56"/>
      <path id="Path_105" data-name="Path 105" d="M907.515,84.66V481.67A17.839,17.839,0,0,1,889.676,499.5H728.5A17.808,17.808,0,0,1,710.66,481.67V84.66A17.838,17.838,0,0,1,728.5,66.822h24.123v3.1a14.688,14.688,0,0,0,14.688,14.688h81.971A14.688,14.688,0,0,0,863.97,69.917v-3.1h25.706A17.833,17.833,0,0,1,907.515,84.66Z" transform="translate(-62.485 -66.822)" fill="#f2f2f2"/>
      <rect id="Rectangle_15" data-name="Rectangle 15" width="155.94" height="1.575" transform="translate(669.432 203.392)" fill="#3f3d56"/>
      <rect id="Rectangle_16" data-name="Rectangle 16" width="155.94" height="1.575" transform="translate(669.432 244.346)" fill="#3f3d56"/>
      <rect id="Rectangle_17" data-name="Rectangle 17" width="155.94" height="1.575" transform="translate(669.432 285.3)" fill="#3f3d56"/>
      <circle id="Ellipse_7" data-name="Ellipse 7" cx="25.602" cy="25.602" r="25.602" transform="translate(717.64 92.395)" fill="#23ce6b"/>
      <rect id="Rectangle_18" data-name="Rectangle 18" width="11.026" height="25.202" transform="translate(785.993 196.304)" fill="#23ce6b"/>
      <rect id="Rectangle_19" data-name="Rectangle 19" width="11.026" height="25.202" transform="translate(689.121 236.47)" fill="#23ce6b"/>
      <rect id="Rectangle_20" data-name="Rectangle 20" width="11.026" height="25.202" transform="translate(753.703 276.637)" fill="#23ce6b"/>
      <path id="Path_106" data-name="Path 106" d="M809.088,213.508a31.5,31.5,0,1,1,31.5-31.5A31.5,31.5,0,0,1,809.088,213.508Zm0-61.431A29.928,29.928,0,1,0,839.016,182a29.928,29.928,0,0,0-29.928-29.928Z" transform="translate(-62.485 -66.822)" fill="#3f3d56"/>
      <rect id="Rectangle_21" data-name="Rectangle 21" width="2" height="99.257" transform="translate(216.591 209.542) rotate(-39.546)" fill="#fff"/>
      <path id="Path_107" data-name="Path 107" d="M350.73,361.573c-5.241-3.038-12.5-6.182-18.219-7.126l9.525-3.4,5.143-8.708C347.023,348.129,348.737,355.853,350.73,361.573Z" transform="translate(-62.485 -66.822)" fill="#fff"/>
      <rect id="Rectangle_22" data-name="Rectangle 22" width="99.257" height="2.001" transform="translate(562.943 284.816) rotate(-50.466)" fill="#fff"/>
      <path id="Path_108" data-name="Path 108" d="M618.506,361.573c1.991-5.721,3.705-13.445,3.55-19.238l5.144,8.709,9.524,3.4C631.005,355.389,623.746,358.534,618.506,361.573Z" transform="translate(-62.485 -66.822)" fill="#fff"/>
    </g>
  </g>
</svg>
