<svg xmlns="http://www.w3.org/2000/svg" xmlns:xlink="http://www.w3.org/1999/xlink" width="1920" height="1080" viewBox="0 0 1920 1080">
  <defs>
    <clipPath id="clip-Web_1920_1">
      <rect width="1920" height="1080"/>
    </clipPath>
  </defs>
  <g id="Web_1920_1" data-name="Web 1920 – 1" clip-path="url(#clip-Web_1920_1)">
    <g id="Group_1" data-name="Group 1" transform="translate(569 268)">
      <path id="Path_43" data-name="Path 43" d="M276.438,309.3c-18.936-41.884-18.237-94.975,11.15-130.319a211.783,211.783,0,0,0,75.8,124.082c15.13,11.947,33.2,23.659,37.335,42.488,2.572,11.716-1.073,24.109-7.376,34.314s-15.088,18.6-23.773,26.875l-.974,2.831C330.809,383.411,295.374,351.188,276.438,309.3Z" transform="translate(-118.662 -178.189)" fill="#f0f0f0"/>
      <path id="Path_44" data-name="Path 44" d="M288.406,179.5c-6.763,37.034-1.739,76.468,14.7,110.4,3.554,7.336,7.8,14.468,13.479,20.367a44.709,44.709,0,0,0,20.3,11.9c7.147,2.087,14.7,3.394,21.216,7.182,6.868,3.993,11.13,10.692,12.79,18.375,2.032,9.4.564,18.97-1.2,28.278-1.954,10.335-4.148,21.039-1.316,31.428.343,1.259-1.63,1.718-1.973.461-4.927-18.076,4.652-35.9,3.313-54.077-.625-8.48-3.809-16.823-11.08-21.736-6.358-4.3-14.146-5.651-21.4-7.7-7.618-2.153-14.46-5.442-20.281-10.9-5.955-5.58-10.487-12.562-14.213-19.774a175.619,175.619,0,0,1-16.873-52.231,184.227,184.227,0,0,1,.6-62.572c.234-1.279,2.168-.673,1.936.6Z" transform="translate(-118.662 -178.189)" fill="#fff"/>
      <path id="Path_45" data-name="Path 45" d="M297.181,279.148a27.158,27.158,0,0,1-32.472-13.5c-.589-1.163,1.19-2.133,1.78-.969a25.148,25.148,0,0,0,30.231,12.5c1.24-.4,1.693,1.571.461,1.973Z" transform="translate(-118.662 -178.189)" fill="#fff"/>
      <path id="Path_46" data-name="Path 46" d="M333.121,321.582a52.346,52.346,0,0,0,4.234-37.912c-.339-1.26,1.635-1.719,1.973-.461a54.447,54.447,0,0,1-4.486,39.442c-.611,1.154-2.329.079-1.721-1.069Z" transform="translate(-118.662 -178.189)" fill="#fff"/>
      <path id="Path_47" data-name="Path 47" d="M285.106,221.389a15.373,15.373,0,0,0,12.047-8.225c.6-1.161,2.313-.085,1.721,1.069a17.227,17.227,0,0,1-13.307,9.128,1.047,1.047,0,0,1-1.217-.756,1.018,1.018,0,0,1,.756-1.217Z" transform="translate(-118.662 -178.189)" fill="#fff"/>
      <path id="Path_48" data-name="Path 48" d="M443.219,179.4c-.352.736-.7,1.472-1.047,2.222a202.459,202.459,0,0,0-11.557,30.74c-.246.811-.483,1.637-.705,2.454a213.431,213.431,0,0,0-6.483,78.311,207.264,207.264,0,0,0,5.623,30.986c3.671,14.047,8.768,28.985,7.618,43.011a35.557,35.557,0,0,1-.582,4.362l-63.955,39.064c-.19.016-.372.047-.562.063l-2.482,1.676c-.174-.515-.343-1.053-.516-1.568-.1-.3-.19-.605-.292-.9-.063-.2-.126-.4-.2-.582-.021-.067-.042-.135-.055-.187-.069-.178-.114-.351-.174-.515q-1.43-4.506-2.8-9.048c-.009-.015-.009-.015,0-.038-6.909-23.088-11.951-46.956-13.21-70.83-.038-.718-.085-1.451-.093-2.187a197.774,197.774,0,0,1,1.115-32.257,174.85,174.85,0,0,1,2.994-17.436A145.4,145.4,0,0,1,372.7,234.51c15.541-26.121,39.263-46.982,68.3-54.557C441.738,179.759,442.467,179.574,443.219,179.4Z" transform="translate(-118.662 -178.189)" fill="#f0f0f0"/>
      <path id="Path_49" data-name="Path 49" d="M443.571,180.295c-27.7,25.5-47.428,60.009-54.73,97-1.579,8-2.484,16.246-1.5,24.378a44.709,44.709,0,0,0,9.042,21.723c4.45,5.97,9.694,11.56,12.616,18.508,3.08,7.323,2.449,15.238-.85,22.372-4.037,8.729-10.97,15.486-17.98,21.858-7.783,7.075-15.979,14.3-19.973,24.3-.484,1.212-2.336.39-1.853-.82,6.949-17.4,25.331-25.866,35.2-41.182,4.607-7.147,7.087-15.725,4.24-24.026-2.49-7.259-7.892-13.028-12.451-19.034-4.786-6.306-8.269-13.051-9.633-20.911-1.4-8.041-.81-16.343.557-24.346a175.617,175.617,0,0,1,17.975-51.862,184.228,184.228,0,0,1,38.15-49.6c.957-.881,2.136.768,1.186,1.643Z" transform="translate(-118.662 -178.189)" fill="#fff"/>
      <path id="Path_50" data-name="Path 50" d="M390.58,265.144a27.158,27.158,0,0,1-17.8-30.331c.23-1.283,2.234-.987,2,.3A25.148,25.148,0,0,0,391.4,263.291c1.233.424.406,2.274-.82,1.853Z" transform="translate(-118.662 -178.189)" fill="#fff"/>
      <path id="Path_51" data-name="Path 51" d="M393.728,320.664a52.346,52.346,0,0,0,26.207-27.721c.488-1.21,2.34-.388,1.853.82a54.447,54.447,0,0,1-27.329,28.791c-1.183.554-1.907-1.339-.73-1.89Z" transform="translate(-118.662 -178.189)" fill="#fff"/>
      <path id="Path_52" data-name="Path 52" d="M415.714,211.757a15.373,15.373,0,0,0,14.571.686c1.175-.568,1.9,1.325.73,1.89a17.227,17.227,0,0,1-16.121-.723,1.047,1.047,0,0,1-.516-1.336,1.018,1.018,0,0,1,1.336-.516Z" transform="translate(-118.662 -178.189)" fill="#fff"/>
      <path id="Path_53" data-name="Path 53" d="M688.438,331.3c-18.936-41.884-18.237-94.975,11.15-130.319a211.784,211.784,0,0,0,75.8,124.082c15.13,11.947,33.2,23.659,37.335,42.488,2.572,11.716-1.073,24.109-7.376,34.314s-15.088,18.6-23.773,26.875l-.974,2.831C742.809,405.411,707.374,373.188,688.438,331.3Z" transform="translate(-118.662 -178.189)" fill="#f0f0f0"/>
      <path id="Path_54" data-name="Path 54" d="M700.406,201.5c-6.763,37.034-1.739,76.468,14.7,110.4,3.554,7.336,7.8,14.468,13.479,20.367a44.708,44.708,0,0,0,20.3,11.9c7.148,2.087,14.7,3.394,21.216,7.182,6.868,3.993,11.13,10.692,12.791,18.375,2.031,9.4.564,18.97-1.2,28.278-1.954,10.335-4.148,21.039-1.316,31.428.343,1.259-1.63,1.718-1.973.461-4.927-18.076,4.652-35.9,3.313-54.077-.625-8.48-3.809-16.823-11.08-21.736-6.358-4.3-14.146-5.651-21.4-7.7-7.618-2.153-14.46-5.442-20.281-10.9-5.955-5.58-10.487-12.562-14.213-19.774a175.62,175.62,0,0,1-16.873-52.231,184.229,184.229,0,0,1,.6-62.572c.234-1.279,2.168-.673,1.936.6Z" transform="translate(-118.662 -178.189)" fill="#fff"/>
      <path id="Path_55" data-name="Path 55" d="M709.181,301.148a27.158,27.158,0,0,1-32.472-13.5c-.589-1.163,1.19-2.133,1.78-.969a25.148,25.148,0,0,0,30.231,12.5c1.24-.4,1.693,1.571.461,1.973Z" transform="translate(-118.662 -178.189)" fill="#fff"/>
      <path id="Path_56" data-name="Path 56" d="M745.121,343.582a52.346,52.346,0,0,0,4.234-37.912c-.339-1.26,1.635-1.719,1.973-.461a54.447,54.447,0,0,1-4.486,39.442c-.611,1.154-2.329.079-1.721-1.069Z" transform="translate(-118.662 -178.189)" fill="#fff"/>
      <path id="Path_57" data-name="Path 57" d="M697.106,243.389a15.373,15.373,0,0,0,12.047-8.225c.6-1.161,2.313-.085,1.721,1.069a17.227,17.227,0,0,1-13.307,9.129,1.047,1.047,0,0,1-1.217-.756,1.018,1.018,0,0,1,.756-1.217Z" transform="translate(-118.662 -178.189)" fill="#fff"/>
      <path id="Path_58" data-name="Path 58" d="M855.219,201.4c-.352.736-.7,1.472-1.047,2.222a202.457,202.457,0,0,0-11.557,30.74c-.246.811-.483,1.637-.705,2.454a213.429,213.429,0,0,0-6.483,78.311,207.278,207.278,0,0,0,5.623,30.986c3.671,14.047,8.768,28.985,7.618,43.011a35.563,35.563,0,0,1-.581,4.362l-63.955,39.064c-.19.016-.372.047-.562.063l-2.482,1.676c-.174-.515-.343-1.053-.516-1.568-.1-.3-.19-.605-.292-.9-.063-.2-.126-.4-.2-.582-.021-.067-.042-.135-.055-.187-.069-.178-.114-.351-.174-.515q-1.43-4.506-2.8-9.048c-.009-.015-.009-.015,0-.038-6.909-23.088-11.951-46.956-13.21-70.83-.038-.718-.085-1.451-.093-2.187a197.775,197.775,0,0,1,1.115-32.257,174.848,174.848,0,0,1,2.994-17.436A145.4,145.4,0,0,1,784.7,256.51c15.541-26.122,39.263-46.982,68.3-54.557C853.738,201.759,854.467,201.574,855.219,201.4Z" transform="translate(-118.662 -178.189)" fill="#f0f0f0"/>
      <path id="Path_59" data-name="Path 59" d="M855.571,202.295c-27.7,25.5-47.428,60.009-54.73,97-1.579,8-2.484,16.246-1.5,24.378a44.71,44.71,0,0,0,9.042,21.723c4.45,5.97,9.694,11.56,12.616,18.508,3.08,7.323,2.449,15.238-.851,22.372-4.037,8.729-10.97,15.486-17.98,21.858-7.783,7.075-15.979,14.3-19.973,24.3-.484,1.212-2.336.39-1.853-.82,6.949-17.4,25.331-25.866,35.2-41.182,4.607-7.147,7.087-15.725,4.24-24.026-2.49-7.259-7.892-13.028-12.451-19.034-4.786-6.306-8.269-13.051-9.633-20.911-1.4-8.041-.81-16.343.557-24.346a175.62,175.62,0,0,1,17.975-51.862,184.227,184.227,0,0,1,38.15-49.6c.957-.881,2.136.768,1.186,1.643Z" transform="translate(-118.662 -178.189)" fill="#fff"/>
      <path id="Path_60" data-name="Path 60" d="M802.58,287.144a27.158,27.158,0,0,1-17.8-30.332c.229-1.283,2.234-.987,2,.3A25.148,25.148,0,0,0,803.4,285.291c1.233.424.406,2.274-.82,1.853Z" transform="translate(-118.662 -178.189)" fill="#fff"/>
      <path id="Path_61" data-name="Path 61" d="M805.728,342.664a52.345,52.345,0,0,0,26.207-27.721c.488-1.21,2.34-.389,1.853.82a54.447,54.447,0,0,1-27.329,28.791c-1.183.553-1.907-1.339-.73-1.89Z" transform="translate(-118.662 -178.189)" fill="#fff"/>
      <path id="Path_62" data-name="Path 62" d="M827.714,233.757a15.373,15.373,0,0,0,14.571.686c1.175-.568,1.9,1.325.73,1.89a17.227,17.227,0,0,1-16.121-.723,1.047,1.047,0,0,1-.516-1.336A1.018,1.018,0,0,1,827.714,233.757Z" transform="translate(-118.662 -178.189)" fill="#fff"/>
      <path id="Path_63" data-name="Path 63" d="M305.468,606.529H792.649V324.481a7.98,7.98,0,0,0-7.971-7.971H313.439a7.98,7.98,0,0,0-7.971,7.971Z" transform="translate(-118.662 -178.189)" fill="#cacaca"/>
      <rect id="Rectangle_1" data-name="Rectangle 1" width="457.077" height="259.491" transform="translate(201.858 149.345)" fill="#fff"/>
      <path id="Path_64" data-name="Path 64" d="M305.044,598.9v34.8a10.987,10.987,0,0,0,10.987,10.987H495.846v68.689h-2.389a1.427,1.427,0,0,0-1.427,1.427v4.778a1.427,1.427,0,0,0,1.427,1.427H605.084a1.427,1.427,0,0,0,1.427-1.427v-4.778a1.427,1.427,0,0,0-1.427-1.427h-2.389V644.69H782.51A10.987,10.987,0,0,0,793.5,633.7V598.9Z" transform="translate(-118.662 -178.189)" fill="#3f3d56"/>
      <path id="Path_65" data-name="Path 65" d="M462.649,455.862H351.262a2.931,2.931,0,0,1-2.928-2.928v-45.2a2.931,2.931,0,0,1,2.928-2.928H462.648a2.931,2.931,0,0,1,2.928,2.928v45.2a2.931,2.931,0,0,1-2.927,2.927Z" transform="translate(-118.662 -178.189)" fill="#23ce6b"/>
      <path id="Path_66" data-name="Path 66" d="M452.043,477.543H361.868a3.513,3.513,0,0,1,0-7.027h90.174C456.573,470.453,456.619,477.607,452.043,477.543Z" transform="translate(-118.662 -178.189)" fill="#e4e4e4"/>
      <path id="Path_67" data-name="Path 67" d="M452.043,493.645H361.868a3.513,3.513,0,0,1,0-7.027h90.174C456.573,486.556,456.619,493.709,452.043,493.645Z" transform="translate(-118.662 -178.189)" fill="#e4e4e4"/>
      <path id="Path_68" data-name="Path 68" d="M452.043,509.748H361.868a3.513,3.513,0,1,1,0-7.027h90.174C456.573,502.658,456.619,509.812,452.043,509.748Z" transform="translate(-118.662 -178.189)" fill="#e4e4e4"/>
      <path id="Path_69" data-name="Path 69" d="M604.752,455.862H493.365a2.931,2.931,0,0,1-2.928-2.928v-45.2a2.931,2.931,0,0,1,2.928-2.928H604.751a2.931,2.931,0,0,1,2.928,2.928v45.2a2.931,2.931,0,0,1-2.927,2.927Z" transform="translate(-118.662 -178.189)" fill="#23ce6b"/>
      <path id="Path_70" data-name="Path 70" d="M594.146,477.543H503.971a3.513,3.513,0,0,1,0-7.027h90.174C598.676,470.453,598.722,477.607,594.146,477.543Z" transform="translate(-118.662 -178.189)" fill="#e4e4e4"/>
      <path id="Path_71" data-name="Path 71" d="M594.146,493.645H503.971a3.513,3.513,0,1,1,0-7.027h90.174C598.676,486.556,598.722,493.709,594.146,493.645Z" transform="translate(-118.662 -178.189)" fill="#e4e4e4"/>
      <path id="Path_72" data-name="Path 72" d="M594.146,509.748H503.971a3.513,3.513,0,0,1,0-7.027h90.174C598.676,502.658,598.722,509.812,594.146,509.748Z" transform="translate(-118.662 -178.189)" fill="#e4e4e4"/>
      <path id="Path_73" data-name="Path 73" d="M746.854,455.862H635.468a2.931,2.931,0,0,1-2.928-2.928v-45.2a2.931,2.931,0,0,1,2.928-2.928H746.854a2.931,2.931,0,0,1,2.928,2.928v45.2a2.931,2.931,0,0,1-2.928,2.927Z" transform="translate(-118.662 -178.189)" fill="#23ce6b"/>
      <path id="Path_74" data-name="Path 74" d="M736.248,477.543H646.074a3.513,3.513,0,1,1,0-7.027h90.174C740.779,470.453,740.825,477.607,736.248,477.543Z" transform="translate(-118.662 -178.189)" fill="#e4e4e4"/>
      <path id="Path_75" data-name="Path 75" d="M736.248,493.645H646.074a3.513,3.513,0,1,1,0-7.027h90.174C740.779,486.556,740.825,493.709,736.248,493.645Z" transform="translate(-118.662 -178.189)" fill="#e4e4e4"/>
      <path id="Path_76" data-name="Path 76" d="M736.248,509.748H646.074a3.513,3.513,0,1,1,0-7.027h90.174C740.779,502.658,740.825,509.812,736.248,509.748Z" transform="translate(-118.662 -178.189)" fill="#e4e4e4"/>
      <path id="Path_77" data-name="Path 77" d="M937.189,405.421l.3,56.649,1.242-.07,1.18,20.973-2.3.126.064,12.6,1.845-.036.374,20.991-2.1.038,1,184.856A18.274,18.274,0,0,1,920.636,719.9l-204.2,1.106a18.272,18.272,0,0,1-18.355-18.156l-1.6-296.127a18.274,18.274,0,0,1,18.156-18.356l204.2-1.107A18.28,18.28,0,0,1,937.189,405.421Z" transform="translate(-118.662 -178.189)" fill="#3f3d56"/>
      <path id="Path_78" data-name="Path 78" d="M920.932,708.258l-204.918,1.111a5.634,5.634,0,0,1-5.658-5.6l-1.617-298.1a5.634,5.634,0,0,1,5.6-5.658l204.918-1.111a5.634,5.634,0,0,1,5.658,5.6l1.617,298.1a5.634,5.634,0,0,1-5.6,5.658Z" transform="translate(-118.662 -178.189)" fill="#fff"/>
      <circle id="Ellipse_4" data-name="Ellipse 4" cx="1.553" cy="1.553" r="1.553" transform="translate(695.771 213.668)" fill="#fff"/>
      <path id="Path_79" data-name="Path 79" d="M876.934,482.811h-118.6a3.121,3.121,0,0,1-3.117-3.117V431.571a3.121,3.121,0,0,1,3.117-3.117h118.6a3.121,3.121,0,0,1,3.117,3.117v48.123a3.121,3.121,0,0,1-3.117,3.117Z" transform="translate(-118.662 -178.189)" fill="#23ce6b"/>
      <path id="Path_80" data-name="Path 80" d="M865.641,505.9H769.627a3.741,3.741,0,0,1,0-7.482h96.014C870.466,498.347,870.514,505.964,865.641,505.9Z" transform="translate(-118.662 -178.189)" fill="#e4e4e4"/>
      <path id="Path_81" data-name="Path 81" d="M865.641,523.042H769.627a3.741,3.741,0,1,1,0-7.482h96.014C870.466,515.493,870.514,523.11,865.641,523.042Z" transform="translate(-118.662 -178.189)" fill="#e4e4e4"/>
      <path id="Path_82" data-name="Path 82" d="M865.641,540.187H769.627a3.741,3.741,0,0,1,0-7.482h96.014C870.466,532.638,870.514,540.255,865.641,540.187Z" transform="translate(-118.662 -178.189)" fill="#e4e4e4"/>
      <path id="Path_83" data-name="Path 83" d="M876.934,622.446h-118.6a3.121,3.121,0,0,1-3.117-3.117V571.206a3.121,3.121,0,0,1,3.117-3.117h118.6a3.121,3.121,0,0,1,3.117,3.117v48.123a3.121,3.121,0,0,1-3.117,3.117Z" transform="translate(-118.662 -178.189)" fill="#23ce6b"/>
      <path id="Path_84" data-name="Path 84" d="M865.641,645.531H769.627a3.741,3.741,0,0,1,0-7.482h96.014C870.466,637.982,870.514,645.6,865.641,645.531Z" transform="translate(-118.662 -178.189)" fill="#e4e4e4"/>
      <path id="Path_85" data-name="Path 85" d="M865.641,662.676H769.627a3.741,3.741,0,1,1,0-7.482h96.014C870.466,655.127,870.514,662.744,865.641,662.676Z" transform="translate(-118.662 -178.189)" fill="#e4e4e4"/>
      <path id="Path_86" data-name="Path 86" d="M865.641,679.822H769.627a3.741,3.741,0,0,1,0-7.482h96.014C870.466,672.273,870.514,679.89,865.641,679.822Z" transform="translate(-118.662 -178.189)" fill="#e4e4e4"/>
      <path id="Path_87" data-name="Path 87" d="M349.98,706.464l-.394-163.254,1.488,0L351,513.18l-1.488,0-.122-50.124a14.256,14.256,0,0,0-14.29-14.222l-106.086.256a14.256,14.256,0,0,0-14.222,14.29l.084,34.949-2.37.059.524,20.993,1.9-.047.011,4.632-2.019.05.524,20.993,1.547-.039.391,161.812a14.23,14.23,0,0,0,14.29,14.222l106.085-.256a14.273,14.273,0,0,0,14.222-14.29Z" transform="translate(-118.662 -178.189)" fill="#3f3d56"/>
      <path id="Path_88" data-name="Path 88" d="M226.429,714.477a6.845,6.845,0,0,1-4.531-6.42L221.3,462.084a6.831,6.831,0,0,1,6.814-6.847l22.572-.055-.28.689a7.874,7.874,0,0,0,7.316,10.83l50.093-.121a7.975,7.975,0,0,0,6.121-3.8,7.808,7.808,0,0,0,.544-7.063l-.283-.688,23.315-.057a6.84,6.84,0,0,1,6.848,6.815l.567,234.679a18.147,18.147,0,0,1-18.082,18.169l-98.1.237A6.84,6.84,0,0,1,226.429,714.477Z" transform="translate(-118.662 -178.189)" fill="#fff"/>
      <circle id="Ellipse_5" data-name="Ellipse 5" cx="1.553" cy="1.553" r="1.553" transform="translate(144.86 279.717)" fill="#fff"/>
      <path id="Path_89" data-name="Path 89" d="M325.108,536.607h-80.6a2.121,2.121,0,0,1-2.118-2.118v-32.7a2.121,2.121,0,0,1,2.118-2.118h80.6a2.121,2.121,0,0,1,2.118,2.118v32.7A2.121,2.121,0,0,1,325.108,536.607Z" transform="translate(-118.662 -178.189)" fill="#23ce6b"/>
      <path id="Path_90" data-name="Path 90" d="M317.433,552.295H252.184a2.542,2.542,0,1,1,0-5.084h65.249C320.712,547.165,320.744,552.341,317.433,552.295Z" transform="translate(-118.662 -178.189)" fill="#e4e4e4"/>
      <path id="Path_91" data-name="Path 91" d="M317.433,563.947H252.184a2.542,2.542,0,1,1,0-5.084h65.249C320.712,558.817,320.744,563.993,317.433,563.947Z" transform="translate(-118.662 -178.189)" fill="#e4e4e4"/>
      <path id="Path_92" data-name="Path 92" d="M317.433,575.6H252.184a2.542,2.542,0,1,1,0-5.084h65.249C320.712,570.468,320.744,575.645,317.433,575.6Z" transform="translate(-118.662 -178.189)" fill="#e4e4e4"/>
      <path id="Path_93" data-name="Path 93" d="M325.108,634.607h-80.6a2.121,2.121,0,0,1-2.118-2.118v-32.7a2.121,2.121,0,0,1,2.118-2.118h80.6a2.121,2.121,0,0,1,2.118,2.118v32.7A2.121,2.121,0,0,1,325.108,634.607Z" transform="translate(-118.662 -178.189)" fill="#23ce6b"/>
      <path id="Path_94" data-name="Path 94" d="M317.433,650.295H252.184a2.542,2.542,0,1,1,0-5.084h65.249C320.712,645.165,320.744,650.341,317.433,650.295Z" transform="translate(-118.662 -178.189)" fill="#e4e4e4"/>
      <path id="Path_95" data-name="Path 95" d="M317.433,661.947H252.184a2.542,2.542,0,0,1,0-5.084h65.249C320.712,656.817,320.744,661.993,317.433,661.947Z" transform="translate(-118.662 -178.189)" fill="#e4e4e4"/>
      <path id="Path_96" data-name="Path 96" d="M317.433,673.6H252.184a2.542,2.542,0,1,1,0-5.084h65.249C320.712,668.468,320.744,673.645,317.433,673.6Z" transform="translate(-118.662 -178.189)" fill="#e4e4e4"/>
      <path id="Path_106" data-name="Path 106" d="M1080.15,721.811h-960.3a1.191,1.191,0,0,1,0-2.381h960.294a1.191,1.191,0,0,1,0,2.381Z" transform="translate(-118.662 -178.189)" fill="#ccc"/>
    </g>
  </g>
</svg>
