<svg id="Component_1_1" data-name="Component 1 – 1" xmlns="http://www.w3.org/2000/svg" width="751.131" height="569.602" viewBox="0 0 751.131 569.602">
  <path id="Path_1" data-name="Path 1" d="M690.56,204.26V601.49l-1.38,16.54a126.311,126.311,0,0,1-34.47,76.58q-4.23,4.425-8.85,8.38a123.2,123.2,0,0,1-11.94,9.09c-2.38,1.6-4.82,3.11-7.3,4.54a126,126,0,0,1-46.87,15.85H461.39a38.928,38.928,0,0,1-25.62-9.59,39.51,39.51,0,0,1-8.7-10.8,38.9,38.9,0,0,1-4.76-18.69V204.26a39.14,39.14,0,0,1,39.09-39.09H651.48c.45,0,.89.01,1.34.02.29.01.58.02.87.05.39.01.78.04,1.16.08.49.03.97.08,1.45.14.44.06.88.12,1.32.19.09.01.17.03.26.04.56.09,1.12.19,1.67.31s1.11.24,1.65.38c.39.1.79.21,1.18.32.01,0,.03.01.04.01,1.15.34,2.29.73,3.41,1.18.35.13.7.28,1.04.43l.15.06c.28.12.55.24.82.37.81.37,1.61.78,2.4,1.21a40.161,40.161,0,0,1,3.77,2.36c.39.27.77.56,1.14.85.31.23.62.47.92.73a.305.305,0,0,1,.07.05c.04.03.08.07.12.1.27.21.53.43.78.65.49.42.97.86,1.44,1.31.13.12.26.24.39.37s.25.25.38.38.25.25.37.37a1.89,1.89,0,0,1,.2.2c.36.38.71.77,1.05,1.16.43.49.85.99,1.24,1.5.34.42.66.84.97,1.27.29.39.56.78.83,1.18a3.274,3.274,0,0,1,.2.31c.28.41.54.83.8,1.25.65,1.06,1.24,2.16,1.78,3.27.2.42.39.83.57,1.25.23.51.44,1.02.64,1.53.08.19.15.39.22.58.11.29.21.58.31.87.11.32.22.65.32.97l.24.78c.14.47.26.93.38,1.4.07.28.14.56.2.85a39.071,39.071,0,0,1,.91,6.21c.01.26.03.51.04.77C690.55,203.07,690.56,203.66,690.56,204.26Z" transform="translate(-224.434 -165.17)" fill="#3f3d56"/>
  <path id="Path_2" data-name="Path 2" d="M690.56,204.26V369.08l-24.82,26.96q-1.68-1.77-3.31-3.59-2.325-2.55-4.54-5.18c-.39-.45-.76-.89-1.14-1.34-.99-1.16-1.95-2.34-2.91-3.53a240.771,240.771,0,0,1-23.15-34.3c-.84-1.51-1.66-3.02-2.47-4.55a240.351,240.351,0,0,1-17.71-43.28c-.51-1.69-1-3.4-1.46-5.11a240.721,240.721,0,0,1-7.59-40.89c-.19-1.95-.36-3.89-.5-5.84,0-.05-.01-.11-.01-.16-.16-2.12-.27-4.24-.37-6.38a242.311,242.311,0,0,1,8.72-76.72h42.18c.45,0,.89.01,1.34.02.29.01.58.02.87.05.39.01.78.04,1.16.08.49.03.97.08,1.45.14.44.06.88.12,1.32.19.09.01.17.03.26.04h.01c.56.09,1.12.19,1.67.31s1.11.24,1.65.38c.39.1.79.21,1.18.32.01,0,.03.01.04.01,1.15.34,2.28.73,3.4,1.18.35.13.7.28,1.04.43l.15.06c.28.12.55.24.82.37.81.37,1.61.78,2.4,1.21a40.161,40.161,0,0,1,3.77,2.36c.39.27.77.56,1.14.85.31.23.62.47.92.73a.305.305,0,0,1,.07.05h.01c.18.15.36.3.53.45.12.1.25.2.36.3.17.14.33.29.5.43.08.07.16.14.23.21.24.22.47.44.71.67.13.12.26.24.39.37s.25.25.38.38.25.25.37.37l.01.01a.855.855,0,0,1,.19.19c.36.38.71.77,1.05,1.16.43.49.85.99,1.24,1.5.34.42.66.84.97,1.27.29.39.56.78.83,1.18a3.274,3.274,0,0,1,.2.31c.28.41.54.83.8,1.25.65,1.06,1.24,2.16,1.78,3.27.2.42.39.83.57,1.25.23.51.44,1.02.64,1.53.08.19.15.39.22.58.11.29.21.58.31.87.11.32.22.65.32.97l.24.78c.14.47.26.93.38,1.4.07.28.14.56.2.85a39.071,39.071,0,0,1,.91,6.21c.01.26.03.51.04.77C690.55,203.07,690.56,203.66,690.56,204.26Z" transform="translate(-224.434 -165.17)" fill="#23ce6b"/>
  <path id="Path_3" data-name="Path 3" d="M690.57,254.27v-4.56H662.43V178.49h18.45c-.34-.39-.69-.78-1.05-1.16h-.01a.856.856,0,0,0-.19-.19v-.01h-.01c-.12-.12-.24-.25-.37-.37a4.443,4.443,0,0,0-.37-.38h-.01c-.13-.13-.26-.25-.39-.37-.24-.23-.47-.45-.71-.67-.07-.07-.15-.14-.23-.21-.17-.14-.33-.29-.5-.43-.11-.1-.24-.2-.36-.3-.17-.15-.35-.3-.53-.45H662.43v-7.24c-.01,0-.03-.01-.04-.01-.39-.11-.79-.22-1.18-.32-.54-.14-1.1-.27-1.65-.38s-1.11-.22-1.67-.31v12.8a71.234,71.234,0,0,1-56.933,69.779,1.256,1.256,0,0,0,0,.161c.14,1.95.31,3.89.5,5.84h56.43v89.28H628.22c.81,1.53,1.63,3.04,2.47,4.55h27.2v39.17q2.22,2.625,4.54,5.18V348.1h28.14v-9.18h-.01c-.09.03-.17.06-.26.09-13.71,4.61-27.87-5.79-27.87-20.26V254.27Z" transform="translate(-224.434 -165.17)" opacity="0.2"/>
  <path id="Path_4" data-name="Path 4" d="M352.382,616.513,302.64,599.134a170.006,170.006,0,0,1,3.577-81.72c18.87,45.43,77.726,58.131,110.4,94.9a102.259,102.259,0,0,1,23.7,85.409l9.524,36.136a171.354,171.354,0,0,1-122.6-74.521,165.518,165.518,0,0,1-18.323-37.262C330.386,620.556,352.382,616.513,352.382,616.513Z" transform="translate(-224.434 -165.17)" fill="#f2f2f2"/>
  <path id="Path_5" data-name="Path 5" d="M419.6,343.138a4.4,4.4,0,0,1-4.4-4.4V308.827a4.4,4.4,0,0,1,8.8,0v29.912a4.4,4.4,0,0,1-4.4,4.4Z" transform="translate(-224.434 -165.17)" fill="#3f3d56"/>
  <rect id="Rectangle_1" data-name="Rectangle 1" width="61.948" height="27.168" rx="13.584" transform="translate(301.033 154.085)" fill="#23ce6b"/>
  <rect id="Rectangle_2" data-name="Rectangle 2" width="190.998" height="27.168" rx="13.584" transform="translate(236.508 208.421)" fill="#fff"/>
  <rect id="Rectangle_3" data-name="Rectangle 3" width="190.998" height="27.168" rx="13.584" transform="translate(236.508 262.758)" fill="#fff"/>
  <path id="Path_6" data-name="Path 6" d="M418.718,285.073a4.4,4.4,0,0,1-4.4-4.4V250.762a4.4,4.4,0,0,1,8.8,0v29.912A4.4,4.4,0,0,1,418.718,285.073Z" transform="translate(-224.434 -165.17)" fill="#3f3d56"/>
  <path id="Path_7" data-name="Path 7" d="M526.728,179.7a4.4,4.4,0,0,1,4.4-4.4h29.912a4.4,4.4,0,1,1,0,8.8H531.127a4.4,4.4,0,0,1-4.4-4.4Z" transform="translate(-224.434 -165.17)" fill="#fff"/>
  <path id="Path_8" data-name="Path 8" d="M419.6,394.165a4.4,4.4,0,0,1-4.4-4.4V359.854a4.4,4.4,0,0,1,8.8,0v29.912a4.4,4.4,0,0,1-4.4,4.4Z" transform="translate(-224.434 -165.17)" fill="#3f3d56"/>
  <path id="Path_9" data-name="Path 9" d="M693.6,329.165a4.4,4.4,0,0,1-4.4-4.4V294.854a4.4,4.4,0,1,1,8.8,0v29.912a4.4,4.4,0,0,1-4.4,4.4Z" transform="translate(-224.434 -165.17)" fill="#3f3d56"/>
  <circle id="Ellipse_1" data-name="Ellipse 1" cx="4.399" cy="4.399" r="4.399" transform="translate(348.922 10.134)" fill="#fff"/>
  <path id="Path_30" data-name="Path 30" d="M645.867,702.987a123.187,123.187,0,0,1-11.94,9.09c-2.38,1.6-4.82,3.11-7.3,4.54a125.993,125.993,0,0,1-46.87,15.85H461.4a38.927,38.927,0,0,1-25.62-9.59,39.508,39.508,0,0,1-8.7-10.8,38.9,38.9,0,0,1-4.76-18.69V477.747q6.78.48,13.46,1.35c1.52.19,3.03.4,4.54.63a240.058,240.058,0,0,1,87.5,31.07c1.52.9,3.04,1.82,4.54,2.77a241.866,241.866,0,0,1,37.6,28.9q2.385,2.235,4.71,4.55a241.855,241.855,0,0,1,57.25,89.28q.825,2.265,1.6,4.56a240.538,240.538,0,0,1,12.35,62.13Z" transform="translate(-224.434 -165.17)" fill="#23ce6b"/>
  <path id="Path_31" data-name="Path 31" d="M532.357,712.077a71.22,71.22,0,0,1,71.23-71.22h29.93q-.78-2.295-1.6-4.56h-99.56v-89.28h42.31q-2.325-2.31-4.71-4.55h-37.6v-28.9c-1.5-.95-3.02-1.87-4.54-2.77v31.67h-87.5v-62.74c-1.51-.23-3.02-.44-4.54-.63v63.37h-13.46v4.55h13.46V636.3h-13.46v4.56h13.46v71.22h-8.7a39.8,39.8,0,0,0,2.91,4.54h5.79v6.26a38.985,38.985,0,0,0,4.54,3.41v-9.67h87.5v15.85h4.54v-15.85h94.27c2.48-1.43,4.92-2.94,7.3-4.54Zm-4.54,0h-87.5v-71.22h87.5Zm0-75.78h-87.5v-1.77a87.509,87.509,0,0,1,87.5-87.51Z" transform="translate(-224.434 -165.17)" opacity="0.2"/>
  <path id="Path_32" data-name="Path 32" d="M512.327,591.727a17,17,0,1,1-8-14.42,54.159,54.159,0,0,0-8.19,12.89,26.272,26.272,0,0,1,13.75-7.25A16.883,16.883,0,0,1,512.327,591.727Z" transform="translate(-224.434 -165.17)" fill="#2f2e41"/>
  <path id="Path_33" data-name="Path 33" d="M570.306,688.748a17,17,0,1,1,15.853,4.54,54.157,54.157,0,0,0-3.323-14.906,26.275,26.275,0,0,1-4.6,14.853A16.881,16.881,0,0,1,570.306,688.748Z" transform="translate(-224.434 -165.17)" fill="#2f2e41"/>
  <path id="Path_34" data-name="Path 34" d="M671.1,218.372H441.78a1.016,1.016,0,0,1,0-2.031H671.1a1.016,1.016,0,0,1,0,2.031Z" transform="translate(-224.434 -165.17)" fill="#fff"/>
  <ellipse id="Ellipse_3" data-name="Ellipse 3" cx="5.95" cy="6.083" rx="5.95" ry="6.083" transform="translate(228.776 33.822)" fill="#fff"/>
  <ellipse id="Ellipse_4" data-name="Ellipse 4" cx="5.95" cy="6.083" rx="5.95" ry="6.083" transform="translate(249.332 33.822)" fill="#fff"/>
  <ellipse id="Ellipse_5" data-name="Ellipse 5" cx="5.95" cy="6.083" rx="5.95" ry="6.083" transform="translate(269.888 33.822)" fill="#fff"/>
  <path id="Path_35" data-name="Path 35" d="M658.727,200.5h-14.6a1.106,1.106,0,1,0,0,2.211h14.6a1.106,1.106,0,1,0,0-2.211Z" transform="translate(-224.434 -165.17)" fill="#fff"/>
  <path id="Path_36" data-name="Path 36" d="M658.727,204.649h-14.6a1.106,1.106,0,1,0,0,2.211h14.6a1.106,1.106,0,1,0,0-2.211Z" transform="translate(-224.434 -165.17)" fill="#fff"/>
  <path id="Path_37" data-name="Path 37" d="M658.727,208.794h-14.6a1.106,1.106,0,1,0,0,2.211h14.6a1.106,1.106,0,1,0,0-2.211Z" transform="translate(-224.434 -165.17)" fill="#fff"/>
  <path id="Path_38" data-name="Path 38" d="M974.375,734.465l-748.75.307a1.191,1.191,0,0,1,0-2.381l748.75-.307a1.191,1.191,0,0,1,0,2.381Z" transform="translate(-224.434 -165.17)" fill="#cacaca"/>
</svg>
