<svg xmlns="http://www.w3.org/2000/svg" width="727.406" height="404.5" viewBox="0 0 727.406 404.5">
  <g id="Group_2" data-name="Group 2" transform="translate(-920.846 -453.321)">
    <g id="Group_1" data-name="Group 1" transform="translate(827 315)">
      <path id="Path_63" data-name="Path 63" d="M305.468,606.529H792.649V324.481a7.98,7.98,0,0,0-7.971-7.971H313.439a7.98,7.98,0,0,0-7.971,7.971Z" transform="translate(-118.662 -178.189)" fill="#3f3d56"/>
      <rect id="Rectangle_1" data-name="Rectangle 1" width="457.077" height="259.491" transform="translate(201.858 149.345)" fill="#fff"/>
      <path id="Path_64" data-name="Path 64" d="M305.044,598.9v34.8a10.987,10.987,0,0,0,10.987,10.987H495.846v68.689h-2.389a1.427,1.427,0,0,0-1.427,1.427v4.778a1.427,1.427,0,0,0,1.427,1.427H605.084a1.427,1.427,0,0,0,1.427-1.427v-4.778a1.427,1.427,0,0,0-1.427-1.427h-2.389V644.69H782.51A10.987,10.987,0,0,0,793.5,633.7V598.9Z" transform="translate(-118.662 -178.189)" fill="#3f3d56"/>
      <path id="Path_65" data-name="Path 65" d="M462.649,455.862H351.262a2.931,2.931,0,0,1-2.928-2.928v-45.2a2.931,2.931,0,0,1,2.928-2.928H462.648a2.931,2.931,0,0,1,2.928,2.928v45.2a2.931,2.931,0,0,1-2.927,2.927Z" transform="translate(-118.662 -178.189)" fill="#23ce6b"/>
      <path id="Path_66" data-name="Path 66" d="M452.043,477.543H361.868a3.513,3.513,0,0,1,0-7.027h90.174C456.573,470.453,456.619,477.607,452.043,477.543Z" transform="translate(-118.662 -178.189)" fill="#e4e4e4"/>
      <path id="Path_67" data-name="Path 67" d="M452.043,493.645H361.868a3.513,3.513,0,0,1,0-7.027h90.174C456.573,486.556,456.619,493.709,452.043,493.645Z" transform="translate(-118.662 -178.189)" fill="#e4e4e4"/>
      <path id="Path_68" data-name="Path 68" d="M452.043,509.748H361.868a3.513,3.513,0,1,1,0-7.027h90.174C456.573,502.658,456.619,509.812,452.043,509.748Z" transform="translate(-118.662 -178.189)" fill="#e4e4e4"/>
      <path id="Path_69" data-name="Path 69" d="M604.752,455.862H493.365a2.931,2.931,0,0,1-2.928-2.928v-45.2a2.931,2.931,0,0,1,2.928-2.928H604.751a2.931,2.931,0,0,1,2.928,2.928v45.2a2.931,2.931,0,0,1-2.927,2.927Z" transform="translate(-118.662 -178.189)" fill="#23ce6b"/>
      <path id="Path_70" data-name="Path 70" d="M594.146,477.543H503.971a3.513,3.513,0,0,1,0-7.027h90.174C598.676,470.453,598.722,477.607,594.146,477.543Z" transform="translate(-118.662 -178.189)" fill="#e4e4e4"/>
      <path id="Path_71" data-name="Path 71" d="M594.146,493.645H503.971a3.513,3.513,0,1,1,0-7.027h90.174C598.676,486.556,598.722,493.709,594.146,493.645Z" transform="translate(-118.662 -178.189)" fill="#e4e4e4"/>
      <path id="Path_72" data-name="Path 72" d="M594.146,509.748H503.971a3.513,3.513,0,0,1,0-7.027h90.174C598.676,502.658,598.722,509.812,594.146,509.748Z" transform="translate(-118.662 -178.189)" fill="#e4e4e4"/>
      <path id="Path_73" data-name="Path 73" d="M746.854,455.862H635.468a2.931,2.931,0,0,1-2.928-2.928v-45.2a2.931,2.931,0,0,1,2.928-2.928H746.854a2.931,2.931,0,0,1,2.928,2.928v45.2a2.931,2.931,0,0,1-2.928,2.927Z" transform="translate(-118.662 -178.189)" fill="#23ce6b"/>
      <path id="Path_74" data-name="Path 74" d="M736.248,477.543H646.074a3.513,3.513,0,1,1,0-7.027h90.174C740.779,470.453,740.825,477.607,736.248,477.543Z" transform="translate(-118.662 -178.189)" fill="#e4e4e4"/>
      <path id="Path_75" data-name="Path 75" d="M736.248,493.645H646.074a3.513,3.513,0,1,1,0-7.027h90.174C740.779,486.556,740.825,493.709,736.248,493.645Z" transform="translate(-118.662 -178.189)" fill="#e4e4e4"/>
      <path id="Path_76" data-name="Path 76" d="M736.248,509.748H646.074a3.513,3.513,0,1,1,0-7.027h90.174C740.779,502.658,740.825,509.812,736.248,509.748Z" transform="translate(-118.662 -178.189)" fill="#e4e4e4"/>
      <path id="Path_77" data-name="Path 77" d="M937.189,405.421l.3,56.649,1.242-.07,1.18,20.973-2.3.126.064,12.6,1.845-.036.374,20.991-2.1.038,1,184.856A18.274,18.274,0,0,1,920.636,719.9l-204.2,1.106a18.272,18.272,0,0,1-18.355-18.156l-1.6-296.127a18.274,18.274,0,0,1,18.156-18.356l204.2-1.107A18.28,18.28,0,0,1,937.189,405.421Z" transform="translate(-118.662 -178.189)" fill="#3f3d56"/>
      <path id="Path_78" data-name="Path 78" d="M920.932,708.258l-204.918,1.111a5.634,5.634,0,0,1-5.658-5.6l-1.617-298.1a5.634,5.634,0,0,1,5.6-5.658l204.918-1.111a5.634,5.634,0,0,1,5.658,5.6l1.617,298.1a5.634,5.634,0,0,1-5.6,5.658Z" transform="translate(-118.662 -178.189)" fill="#fff"/>
      <circle id="Ellipse_4" data-name="Ellipse 4" cx="1.553" cy="1.553" r="1.553" transform="translate(695.771 213.668)" fill="#fff"/>
      <path id="Path_79" data-name="Path 79" d="M876.934,482.811h-118.6a3.121,3.121,0,0,1-3.117-3.117V431.571a3.121,3.121,0,0,1,3.117-3.117h118.6a3.121,3.121,0,0,1,3.117,3.117v48.123a3.121,3.121,0,0,1-3.117,3.117Z" transform="translate(-118.662 -178.189)" fill="#23ce6b"/>
      <path id="Path_80" data-name="Path 80" d="M865.641,505.9H769.627a3.741,3.741,0,0,1,0-7.482h96.014C870.466,498.347,870.514,505.964,865.641,505.9Z" transform="translate(-118.662 -178.189)" fill="#e4e4e4"/>
      <path id="Path_81" data-name="Path 81" d="M865.641,523.042H769.627a3.741,3.741,0,1,1,0-7.482h96.014C870.466,515.493,870.514,523.11,865.641,523.042Z" transform="translate(-118.662 -178.189)" fill="#e4e4e4"/>
      <path id="Path_82" data-name="Path 82" d="M865.641,540.187H769.627a3.741,3.741,0,0,1,0-7.482h96.014C870.466,532.638,870.514,540.255,865.641,540.187Z" transform="translate(-118.662 -178.189)" fill="#e4e4e4"/>
      <path id="Path_83" data-name="Path 83" d="M876.934,622.446h-118.6a3.121,3.121,0,0,1-3.117-3.117V571.206a3.121,3.121,0,0,1,3.117-3.117h118.6a3.121,3.121,0,0,1,3.117,3.117v48.123a3.121,3.121,0,0,1-3.117,3.117Z" transform="translate(-118.662 -178.189)" fill="#23ce6b"/>
      <path id="Path_84" data-name="Path 84" d="M865.641,645.531H769.627a3.741,3.741,0,0,1,0-7.482h96.014C870.466,637.982,870.514,645.6,865.641,645.531Z" transform="translate(-118.662 -178.189)" fill="#e4e4e4"/>
      <path id="Path_85" data-name="Path 85" d="M865.641,662.676H769.627a3.741,3.741,0,1,1,0-7.482h96.014C870.466,655.127,870.514,662.744,865.641,662.676Z" transform="translate(-118.662 -178.189)" fill="#e4e4e4"/>
      <path id="Path_86" data-name="Path 86" d="M865.641,679.822H769.627a3.741,3.741,0,0,1,0-7.482h96.014C870.466,672.273,870.514,679.89,865.641,679.822Z" transform="translate(-118.662 -178.189)" fill="#e4e4e4"/>
      <path id="Path_87" data-name="Path 87" d="M349.98,706.464l-.394-163.254,1.488,0L351,513.18l-1.488,0-.122-50.124a14.256,14.256,0,0,0-14.29-14.222l-106.086.256a14.256,14.256,0,0,0-14.222,14.29l.084,34.949-2.37.059.524,20.993,1.9-.047.011,4.632-2.019.05.524,20.993,1.547-.039.391,161.812a14.23,14.23,0,0,0,14.29,14.222l106.085-.256a14.273,14.273,0,0,0,14.222-14.29Z" transform="translate(-118.662 -178.189)" fill="#3f3d56"/>
      <path id="Path_88" data-name="Path 88" d="M226.429,714.477a6.845,6.845,0,0,1-4.531-6.42L221.3,462.084a6.831,6.831,0,0,1,6.814-6.847l22.572-.055-.28.689a7.874,7.874,0,0,0,7.316,10.83l50.093-.121a7.975,7.975,0,0,0,6.121-3.8,7.808,7.808,0,0,0,.544-7.063l-.283-.688,23.315-.057a6.84,6.84,0,0,1,6.848,6.815l.567,234.679a18.147,18.147,0,0,1-18.082,18.169l-98.1.237A6.84,6.84,0,0,1,226.429,714.477Z" transform="translate(-118.662 -178.189)" fill="#fff"/>
      <circle id="Ellipse_5" data-name="Ellipse 5" cx="1.553" cy="1.553" r="1.553" transform="translate(144.86 279.717)" fill="#fff"/>
      <path id="Path_89" data-name="Path 89" d="M325.108,536.607h-80.6a2.121,2.121,0,0,1-2.118-2.118v-32.7a2.121,2.121,0,0,1,2.118-2.118h80.6a2.121,2.121,0,0,1,2.118,2.118v32.7A2.121,2.121,0,0,1,325.108,536.607Z" transform="translate(-118.662 -178.189)" fill="#23ce6b"/>
      <path id="Path_90" data-name="Path 90" d="M317.433,552.295H252.184a2.542,2.542,0,1,1,0-5.084h65.249C320.712,547.165,320.744,552.341,317.433,552.295Z" transform="translate(-118.662 -178.189)" fill="#e4e4e4"/>
      <path id="Path_91" data-name="Path 91" d="M317.433,563.947H252.184a2.542,2.542,0,1,1,0-5.084h65.249C320.712,558.817,320.744,563.993,317.433,563.947Z" transform="translate(-118.662 -178.189)" fill="#e4e4e4"/>
      <path id="Path_92" data-name="Path 92" d="M317.433,575.6H252.184a2.542,2.542,0,1,1,0-5.084h65.249C320.712,570.468,320.744,575.645,317.433,575.6Z" transform="translate(-118.662 -178.189)" fill="#e4e4e4"/>
      <path id="Path_93" data-name="Path 93" d="M325.108,634.607h-80.6a2.121,2.121,0,0,1-2.118-2.118v-32.7a2.121,2.121,0,0,1,2.118-2.118h80.6a2.121,2.121,0,0,1,2.118,2.118v32.7A2.121,2.121,0,0,1,325.108,634.607Z" transform="translate(-118.662 -178.189)" fill="#23ce6b"/>
      <path id="Path_94" data-name="Path 94" d="M317.433,650.295H252.184a2.542,2.542,0,1,1,0-5.084h65.249C320.712,645.165,320.744,650.341,317.433,650.295Z" transform="translate(-118.662 -178.189)" fill="#e4e4e4"/>
      <path id="Path_95" data-name="Path 95" d="M317.433,661.947H252.184a2.542,2.542,0,0,1,0-5.084h65.249C320.712,656.817,320.744,661.993,317.433,661.947Z" transform="translate(-118.662 -178.189)" fill="#e4e4e4"/>
      <path id="Path_96" data-name="Path 96" d="M317.433,673.6H252.184a2.542,2.542,0,1,1,0-5.084h65.249C320.712,668.468,320.744,673.645,317.433,673.6Z" transform="translate(-118.662 -178.189)" fill="#e4e4e4"/>
    </g>
  </g>
</svg>
